<svg width="676" height="197" viewBox="0 0 676 197" fill="none" xmlns="http://www.w3.org/2000/svg">
<path d="M193.6 172.79C179.7 157.63 169.08 138.51 147.04 132.37C135.25 129.1 132.91 121.32 138.66 110.44C151.66 85.73 151.84 60.58 137.79 36.49C123.74 12.4 101.72 0.37 71.72 0C67.9 0.47 62.07 0.5 56.72 2C26.45 10.36 7.50003 29.87 1.54003 60.74C-4.22997 90.82 6.39003 115.68 30.65 133.27C55.27 151.14 82.32 153.33 109.76 138.22C120.46 132.37 130.3 134.95 132.86 145.95C138.02 168.12 157.35 178.03 171.29 192.45C176.49 197.83 184.53 197.01 190.51 191.63C196.49 186.25 198.71 178.35 193.6 172.79ZM74 135.69C39.36 135.64 12.44 108.69 12.47 74C12.3902 57.5932 18.8252 41.8255 30.3618 30.1595C41.8984 18.4936 57.5934 11.8831 74 11.78C108.28 11.42 136.64 39.97 136.46 74.61C136.28 108.7 108.6 135.77 74 135.69Z" fill="url(#paint0_linear_273_3)"/>
<path d="M55 36.3701C60.84 47.3701 60.57 57.6301 62.76 67.2001C64.91 76.5701 66.53 86.0601 68.71 97.2001C76.37 85.2901 78.71 72.8501 83.88 61.6101C85.1 58.9201 85.39 54.8601 88.99 54.8201C92.88 54.8201 92.85 59.0801 93.73 61.7601C96 68.7601 97.9 76.0001 100.05 83.3701C107.73 81.9701 109.53 72.4601 117.05 71.9901C120.16 71.8001 124.94 69.8701 125.84 74.7501C126.65 79.1501 122.27 78.8401 119.36 79.0501C113.36 79.4801 110.36 84.2501 106.91 88.0501C100.58 94.9001 96.91 93.5401 94.66 84.9501C93.35 79.9501 91.76 75.0901 87.37 69.5401C83.44 79.6801 79.79 90.0001 75.54 100C73.76 104.21 73.54 111.91 68.54 111.39C62.8 110.79 63.98 103.05 62.95 98.2701C60.13 85.2701 57.83 72.1001 55.27 58.7101C49 61.0001 49.66 65.8201 48.13 69.1901C44.24 77.7901 34.13 82.1901 25.53 78.6901C23.7 78.0001 22.4 76.8501 22.44 75.0001C22.44 74.0001 23.89 72.1201 24.44 72.2001C48.28 75.8401 44.44 54.7001 50.93 42.8301C51.76 41.3601 52.74 39.9401 55 36.3701Z" fill="url(#paint1_linear_273_3)"/>
<path d="M207.341 71.536V33.936H214.221L226.915 57.0294L239.554 33.936H246.328V71.536H238.808V48.6027L229.101 65.8827H224.461L214.808 48.7627V71.536H207.341Z" fill="#022A5B"/>
<path d="M262.115 72.1226C260.159 72.1226 258.435 71.7492 256.941 71.0026C255.448 70.2559 254.257 69.2426 253.368 67.9626C252.515 66.6826 252.088 65.2426 252.088 63.6426C252.088 61.7581 252.586 60.247 253.581 59.1092C254.577 57.9715 256.195 57.1715 258.435 56.7092C260.675 56.2115 263.643 55.9626 267.341 55.9626H269.261V55.0559C269.261 53.4915 268.906 52.3892 268.195 51.7492C267.483 51.0737 266.275 50.7359 264.568 50.7359C263.146 50.7359 261.635 50.967 260.035 51.4292C258.47 51.8559 256.906 52.5137 255.341 53.4026L253.155 48.0159C254.079 47.4115 255.199 46.8604 256.515 46.3626C257.866 45.8648 259.27 45.4915 260.728 45.2426C262.186 44.9581 263.572 44.8159 264.888 44.8159C268.941 44.8159 271.963 45.7404 273.955 47.5893C275.946 49.4026 276.941 52.2293 276.941 56.0692V71.5359H269.421V67.5892C268.888 68.9759 267.981 70.0781 266.701 70.8959C265.457 71.7137 263.928 72.1226 262.115 72.1226ZM263.928 66.7359C265.421 66.7359 266.683 66.2204 267.715 65.1892C268.746 64.1581 269.261 62.8248 269.261 61.1892V60.1226H267.395C264.657 60.1226 262.719 60.3715 261.581 60.8692C260.443 61.3315 259.875 62.1492 259.875 63.3226C259.875 64.3181 260.212 65.1359 260.888 65.7759C261.599 66.4159 262.612 66.7359 263.928 66.7359Z" fill="#022A5B"/>
<path d="M292.728 72.1227C289.35 72.1227 286.879 71.2516 285.314 69.5093C283.75 67.7316 282.968 65.1005 282.968 61.616V33.936H291.021V61.296C291.021 64.1405 292.283 65.5627 294.808 65.5627C295.199 65.5627 295.572 65.5449 295.928 65.5094C296.319 65.4738 296.692 65.4027 297.048 65.296L296.941 71.536C295.59 71.9271 294.186 72.1227 292.728 72.1227Z" fill="#022A5B"/>
<path d="M309.581 72.1226C307.625 72.1226 305.901 71.7492 304.408 71.0026C302.914 70.2559 301.723 69.2426 300.834 67.9626C299.981 66.6826 299.554 65.2426 299.554 63.6426C299.554 61.7581 300.052 60.247 301.048 59.1092C302.043 57.9715 303.661 57.1715 305.901 56.7092C308.141 56.2115 311.11 55.9626 314.808 55.9626H316.728V55.0559C316.728 53.4915 316.372 52.3892 315.661 51.7492C314.95 51.0737 313.741 50.7359 312.034 50.7359C310.612 50.7359 309.101 50.967 307.501 51.4292C305.936 51.8559 304.372 52.5137 302.808 53.4026L300.621 48.0159C301.545 47.4115 302.665 46.8604 303.981 46.3626C305.332 45.8648 306.736 45.4915 308.194 45.2426C309.652 44.9581 311.039 44.8159 312.354 44.8159C316.408 44.8159 319.43 45.7404 321.421 47.5893C323.412 49.4026 324.408 52.2293 324.408 56.0692V71.5359H316.888V67.5892C316.354 68.9759 315.448 70.0781 314.168 70.8959C312.923 71.7137 311.394 72.1226 309.581 72.1226ZM311.394 66.7359C312.888 66.7359 314.15 66.2204 315.181 65.1892C316.212 64.1581 316.728 62.8248 316.728 61.1892V60.1226H314.861C312.123 60.1226 310.185 60.3715 309.048 60.8692C307.91 61.3315 307.341 62.1492 307.341 63.3226C307.341 64.3181 307.679 65.1359 308.354 65.7759C309.065 66.4159 310.079 66.7359 311.394 66.7359Z" fill="#022A5B"/>
<path d="M330.434 71.536V33.936H338.488V56.176H338.594L348.248 45.3494H357.794L346.701 57.8827L358.328 71.536H348.621L338.594 60.2294H338.488V71.536H330.434Z" fill="#022A5B"/>
<path d="M372.354 72.1226C369.545 72.1226 367.092 71.5715 364.994 70.4692C362.932 69.3315 361.332 67.7492 360.194 65.7226C359.056 63.6604 358.487 61.2248 358.487 58.4159C358.487 55.6426 359.056 53.2426 360.194 51.2159C361.332 49.1537 362.932 47.5715 364.994 46.4693C367.092 45.367 369.545 44.8159 372.354 44.8159C375.163 44.8159 377.598 45.367 379.661 46.4693C381.758 47.5715 383.376 49.1537 384.514 51.2159C385.687 53.2426 386.274 55.6426 386.274 58.4159C386.274 61.2248 385.687 63.6604 384.514 65.7226C383.376 67.7492 381.758 69.3315 379.661 70.4692C377.598 71.5715 375.163 72.1226 372.354 72.1226ZM372.354 66.0959C374.061 66.0959 375.447 65.4737 376.514 64.2292C377.616 62.9848 378.167 61.047 378.167 58.4159C378.167 55.8204 377.616 53.9181 376.514 52.7092C375.447 51.4648 374.061 50.8426 372.354 50.8426C370.647 50.8426 369.261 51.4648 368.194 52.7092C367.127 53.9181 366.594 55.8204 366.594 58.4159C366.594 61.047 367.127 62.9848 368.194 64.2292C369.261 65.4737 370.647 66.0959 372.354 66.0959Z" fill="#022A5B"/>
<path d="M392.94 71.5362V51.3762H387.98V45.3495H392.94C393.012 41.6518 394.078 38.8784 396.14 37.0295C398.238 35.1451 401.42 34.0784 405.687 33.8295L408.62 33.6162L409.1 39.4829L406.594 39.6429C404.532 39.7495 403.074 40.194 402.22 40.9762C401.403 41.7229 400.994 42.8784 400.994 44.4429V45.3495H407.82V51.3762H400.994V71.5362H392.94Z" fill="#022A5B"/>
<path d="M411.874 71.5362V51.3762H406.914V45.3495H411.874C411.945 41.6518 413.012 38.8784 415.074 37.0295C417.172 35.1451 420.354 34.0784 424.62 33.8295L427.554 33.6162L428.034 39.4829L425.527 39.6429C423.465 39.7495 422.007 40.194 421.154 40.9762C420.336 41.7229 419.927 42.8784 419.927 44.4429V45.3495H426.754V51.3762H419.927V71.5362H411.874Z" fill="#022A5B"/>
<path d="M441.42 71.536L458.7 33.936H465.367L482.647 71.536H474.327L470.807 63.376H453.26L449.794 71.536H441.42ZM461.954 42.736L456.034 56.9227H468.087L462.06 42.736H461.954Z" fill="#022A5B"/>
<path d="M485.207 71.5359V45.3493H493.1V49.1893C493.989 47.767 495.18 46.6826 496.674 45.9359C498.167 45.1893 499.838 44.8159 501.687 44.8159C504.78 44.8159 507.091 45.7226 508.62 47.5359C510.149 49.3137 510.914 52.0692 510.914 55.8026V71.5359H502.86V56.1759C502.86 54.3626 502.523 53.0648 501.847 52.2826C501.171 51.4648 500.176 51.0559 498.86 51.0559C497.154 51.0559 495.785 51.5892 494.754 52.6559C493.758 53.7226 493.26 55.1448 493.26 56.9226V71.5359H485.207Z" fill="#022A5B"/>
<path d="M525.794 72.1226C523.838 72.1226 522.114 71.7492 520.62 71.0026C519.127 70.2559 517.936 69.2426 517.047 67.9626C516.194 66.6826 515.767 65.2426 515.767 63.6426C515.767 61.7581 516.265 60.247 517.26 59.1092C518.256 57.9715 519.874 57.1715 522.114 56.7092C524.354 56.2115 527.323 55.9626 531.02 55.9626H532.94V55.0559C532.94 53.4915 532.585 52.3892 531.874 51.7492C531.163 51.0737 529.954 50.7359 528.247 50.7359C526.825 50.7359 525.314 50.967 523.714 51.4292C522.149 51.8559 520.585 52.5137 519.02 53.4026L516.834 48.0159C517.758 47.4115 518.878 46.8604 520.194 46.3626C521.545 45.8648 522.949 45.4915 524.407 45.2426C525.865 44.9581 527.252 44.8159 528.567 44.8159C532.62 44.8159 535.643 45.7404 537.634 47.5893C539.625 49.4026 540.62 52.2293 540.62 56.0692V71.5359H533.1V67.5892C532.567 68.9759 531.66 70.0781 530.38 70.8959C529.136 71.7137 527.607 72.1226 525.794 72.1226ZM527.607 66.7359C529.1 66.7359 530.363 66.2204 531.394 65.1892C532.425 64.1581 532.94 62.8248 532.94 61.1892V60.1226H531.074C528.336 60.1226 526.398 60.3715 525.26 60.8692C524.123 61.3315 523.554 62.1492 523.554 63.3226C523.554 64.3181 523.892 65.1359 524.567 65.7759C525.278 66.4159 526.292 66.7359 527.607 66.7359Z" fill="#022A5B"/>
<path d="M556.407 72.1227C553.029 72.1227 550.558 71.2516 548.994 69.5093C547.429 67.7316 546.647 65.1005 546.647 61.616V33.936H554.7V61.296C554.7 64.1405 555.963 65.5627 558.487 65.5627C558.878 65.5627 559.251 65.5449 559.607 65.5094C559.998 65.4738 560.371 65.4027 560.727 65.296L560.62 71.536C559.269 71.9271 557.865 72.1227 556.407 72.1227Z" fill="#022A5B"/>
<path d="M565.687 81.1358L570.7 70.0958L559.927 45.3491H568.407L574.967 61.9891L581.74 45.3491H589.74L573.9 81.1358H565.687Z" fill="#022A5B"/>
<path d="M605.847 72.1227C598.487 72.1227 594.807 68.5494 594.807 61.4028V51.3761H589.847V45.3494H594.807V37.6694H602.86V45.3494H610.593V51.3761H602.86V61.0828C602.86 62.5761 603.198 63.6961 603.873 64.4427C604.584 65.1894 605.704 65.5628 607.233 65.5628C607.696 65.5628 608.176 65.5094 608.673 65.4027C609.207 65.2961 609.776 65.1539 610.38 64.9761L611.553 70.8427C610.807 71.2339 609.918 71.5361 608.887 71.7494C607.856 71.9983 606.842 72.1227 605.847 72.1227Z" fill="#022A5B"/>
<path d="M614.22 40.2827V32.7627H622.913V40.2827H614.22ZM614.54 71.536V45.3494H622.593V71.536H614.54Z" fill="#022A5B"/>
<path d="M641.58 72.1226C638.735 72.1226 636.247 71.5715 634.113 70.4692C632.015 69.3315 630.398 67.7315 629.26 65.6692C628.122 63.607 627.553 61.1715 627.553 58.3626C627.553 55.5537 628.122 53.1359 629.26 51.1092C630.398 49.0826 632.015 47.5359 634.113 46.4693C636.247 45.367 638.735 44.8159 641.58 44.8159C643.251 44.8159 644.94 45.0648 646.647 45.5626C648.353 46.0604 649.74 46.7715 650.807 47.6959L648.567 53.2426C647.678 52.5315 646.682 51.9804 645.58 51.5892C644.478 51.1626 643.411 50.9492 642.38 50.9492C640.282 50.9492 638.647 51.607 637.473 52.9226C636.335 54.2026 635.767 56.0337 635.767 58.4159C635.767 60.7626 636.335 62.6115 637.473 63.9626C638.647 65.2781 640.282 65.9359 642.38 65.9359C643.375 65.9359 644.424 65.7404 645.527 65.3492C646.664 64.9581 647.678 64.3892 648.567 63.6426L650.807 69.1892C649.74 70.1137 648.353 70.8426 646.647 71.3759C644.94 71.8737 643.251 72.1226 641.58 72.1226Z" fill="#022A5B"/>
<path d="M664.353 72.1226C662.042 72.1226 659.891 71.8559 657.9 71.3226C655.909 70.7892 654.255 70.0603 652.94 69.1359L654.86 63.9092C656.175 64.727 657.669 65.3848 659.34 65.8826C661.047 66.3448 662.735 66.5759 664.407 66.5759C665.9 66.5759 667.002 66.3448 667.713 65.8826C668.424 65.3848 668.78 64.7448 668.78 63.9626C668.78 62.7181 667.873 61.9359 666.06 61.6159L660.46 60.6026C658.22 60.2115 656.513 59.4115 655.34 58.2026C654.167 56.9937 653.58 55.4115 653.58 53.4559C653.58 51.6781 654.078 50.1493 655.073 48.8693C656.069 47.5893 657.438 46.5937 659.18 45.8826C660.922 45.1715 662.931 44.8159 665.207 44.8159C667.091 44.8159 668.922 45.0648 670.7 45.5626C672.478 46.0248 674.007 46.7715 675.287 47.8026L673.26 52.9759C672.193 52.1937 670.913 51.5537 669.42 51.0559C667.962 50.5581 666.593 50.3092 665.313 50.3092C663.713 50.3092 662.558 50.5759 661.847 51.1092C661.135 51.607 660.78 52.247 660.78 53.0292C660.78 54.2737 661.615 55.0559 663.287 55.3759L668.887 56.3892C671.198 56.7804 672.958 57.5626 674.167 58.7359C675.375 59.8737 675.98 61.4381 675.98 63.4292C675.98 66.167 674.913 68.3004 672.78 69.8292C670.647 71.3581 667.838 72.1226 664.353 72.1226Z" fill="#022A5B"/>
<path d="M225.474 139.779C221.421 139.779 217.954 138.979 215.074 137.379C212.194 135.779 209.972 133.539 208.408 130.659C206.879 127.744 206.115 124.313 206.115 120.366C206.115 116.455 206.879 113.059 208.408 110.179C209.972 107.264 212.194 105.006 215.074 103.406C217.954 101.806 221.421 101.006 225.474 101.006C227.963 101.006 230.346 101.397 232.621 102.179C234.897 102.961 236.763 104.028 238.221 105.379L235.661 111.939C234.061 110.695 232.443 109.788 230.808 109.219C229.208 108.615 227.519 108.313 225.741 108.313C222.15 108.313 219.43 109.361 217.581 111.459C215.768 113.521 214.861 116.49 214.861 120.366C214.861 124.241 215.768 127.228 217.581 129.326C219.43 131.424 222.15 132.473 225.741 132.473C227.519 132.473 229.208 132.188 230.808 131.619C232.443 131.015 234.061 130.09 235.661 128.846L238.221 135.406C236.763 136.721 234.897 137.788 232.621 138.606C230.346 139.388 227.963 139.779 225.474 139.779Z" fill="#022A5B"/>
<path d="M253.688 139.779C250.879 139.779 248.425 139.228 246.328 138.126C244.265 136.988 242.665 135.406 241.528 133.379C240.39 131.317 239.821 128.882 239.821 126.073C239.821 123.299 240.39 120.899 241.528 118.873C242.665 116.81 244.265 115.228 246.328 114.126C248.425 113.024 250.879 112.473 253.688 112.473C256.497 112.473 258.932 113.024 260.994 114.126C263.092 115.228 264.71 116.81 265.848 118.873C267.021 120.899 267.608 123.299 267.608 126.073C267.608 128.882 267.021 131.317 265.848 133.379C264.71 135.406 263.092 136.988 260.994 138.126C258.932 139.228 256.497 139.779 253.688 139.779ZM253.688 133.753C255.394 133.753 256.781 133.13 257.848 131.886C258.95 130.642 259.501 128.704 259.501 126.073C259.501 123.477 258.95 121.575 257.848 120.366C256.781 119.122 255.394 118.499 253.688 118.499C251.981 118.499 250.594 119.122 249.528 120.366C248.461 121.575 247.928 123.477 247.928 126.073C247.928 128.704 248.461 130.642 249.528 131.886C250.594 133.13 251.981 133.753 253.688 133.753Z" fill="#022A5B"/>
<path d="M272.514 139.193V113.006H280.407V116.846C281.296 115.424 282.487 114.339 283.981 113.593C285.474 112.846 287.145 112.473 288.994 112.473C292.087 112.473 294.399 113.379 295.927 115.193C297.456 116.97 298.221 119.726 298.221 123.459V139.193H290.167V123.833C290.167 122.019 289.83 120.722 289.154 119.939C288.479 119.122 287.483 118.713 286.167 118.713C284.461 118.713 283.092 119.246 282.061 120.313C281.065 121.379 280.567 122.802 280.567 124.579V139.193H272.514Z" fill="#022A5B"/>
<path d="M314.274 139.779C311.963 139.779 309.812 139.513 307.821 138.979C305.83 138.446 304.176 137.717 302.861 136.793L304.781 131.566C306.096 132.384 307.59 133.042 309.261 133.539C310.968 134.002 312.656 134.233 314.328 134.233C315.821 134.233 316.923 134.002 317.634 133.539C318.345 133.042 318.701 132.402 318.701 131.619C318.701 130.375 317.794 129.593 315.981 129.273L310.381 128.259C308.141 127.868 306.434 127.068 305.261 125.859C304.088 124.65 303.501 123.068 303.501 121.113C303.501 119.335 303.999 117.806 304.994 116.526C305.99 115.246 307.359 114.25 309.101 113.539C310.843 112.828 312.852 112.473 315.128 112.473C317.012 112.473 318.843 112.722 320.621 113.219C322.399 113.682 323.928 114.428 325.208 115.459L323.181 120.633C322.114 119.85 320.834 119.21 319.341 118.713C317.883 118.215 316.514 117.966 315.234 117.966C313.634 117.966 312.479 118.233 311.768 118.766C311.056 119.264 310.701 119.904 310.701 120.686C310.701 121.93 311.536 122.713 313.208 123.033L318.808 124.046C321.119 124.437 322.879 125.219 324.088 126.393C325.296 127.53 325.901 129.095 325.901 131.086C325.901 133.824 324.834 135.957 322.701 137.486C320.568 139.015 317.759 139.779 314.274 139.779Z" fill="#022A5B"/>
<path d="M340.141 139.779C336.799 139.779 334.328 138.855 332.728 137.006C331.163 135.157 330.381 132.384 330.381 128.686V113.006H338.434V128.899C338.434 131.993 339.768 133.539 342.434 133.539C343.963 133.539 345.208 133.006 346.168 131.939C347.163 130.837 347.661 129.397 347.661 127.619V113.006H355.714V139.193H347.874V135.619C346.132 138.393 343.554 139.779 340.141 139.779Z" fill="#022A5B"/>
<path d="M371.714 139.779C368.336 139.779 365.865 138.908 364.301 137.166C362.736 135.388 361.954 132.757 361.954 129.273V101.593H370.007V128.953C370.007 131.797 371.269 133.219 373.794 133.219C374.185 133.219 374.558 133.202 374.914 133.166C375.305 133.131 375.678 133.059 376.034 132.953L375.927 139.193C374.576 139.584 373.172 139.779 371.714 139.779Z" fill="#022A5B"/>
<path d="M391.767 139.779C384.407 139.779 380.727 136.206 380.727 129.059V119.033H375.767V113.006H380.727V105.326H388.78V113.006H396.514V119.033H388.78V128.739C388.78 130.233 389.118 131.353 389.794 132.099C390.505 132.846 391.625 133.219 393.154 133.219C393.616 133.219 394.096 133.166 394.594 133.059C395.127 132.953 395.696 132.811 396.3 132.633L397.474 138.499C396.727 138.891 395.838 139.193 394.807 139.406C393.776 139.655 392.763 139.779 391.767 139.779Z" fill="#022A5B"/>
<path d="M400.14 107.939V100.419H408.834V107.939H400.14ZM400.46 139.193V113.006H408.514V139.193H400.46Z" fill="#022A5B"/>
<path d="M414.754 139.193V113.006H422.647V116.846C423.536 115.424 424.727 114.339 426.22 113.593C427.714 112.846 429.385 112.473 431.234 112.473C434.327 112.473 436.638 113.379 438.167 115.193C439.696 116.97 440.46 119.726 440.46 123.459V139.193H432.407V123.833C432.407 122.019 432.069 120.722 431.394 119.939C430.718 119.122 429.723 118.713 428.407 118.713C426.7 118.713 425.331 119.246 424.3 120.313C423.305 121.379 422.807 122.802 422.807 124.579V139.193H414.754Z" fill="#022A5B"/>
<path d="M459.074 149.379C456.549 149.379 454.185 149.113 451.98 148.579C449.811 148.046 447.909 147.21 446.274 146.073L448.46 140.579C449.883 141.468 451.483 142.144 453.26 142.606C455.074 143.104 456.78 143.353 458.38 143.353C462.931 143.353 465.207 141.255 465.207 137.059V134.073C464.496 135.424 463.376 136.508 461.847 137.326C460.318 138.144 458.647 138.553 456.834 138.553C454.487 138.553 452.443 138.019 450.7 136.953C448.958 135.85 447.607 134.322 446.647 132.366C445.687 130.41 445.207 128.117 445.207 125.486C445.207 122.89 445.687 120.615 446.647 118.659C447.607 116.704 448.958 115.193 450.7 114.126C452.443 113.024 454.487 112.473 456.834 112.473C458.718 112.473 460.407 112.882 461.9 113.699C463.394 114.517 464.496 115.602 465.207 116.953V113.006H473.047V136.153C473.047 140.562 471.856 143.868 469.474 146.073C467.091 148.277 463.625 149.379 459.074 149.379ZM459.234 132.526C461.011 132.526 462.434 131.904 463.5 130.659C464.603 129.415 465.154 127.69 465.154 125.486C465.154 123.282 464.603 121.575 463.5 120.366C462.434 119.122 461.011 118.499 459.234 118.499C457.42 118.499 455.98 119.122 454.914 120.366C453.847 121.575 453.314 123.282 453.314 125.486C453.314 127.69 453.847 129.415 454.914 130.659C455.98 131.904 457.42 132.526 459.234 132.526Z" fill="#022A5B"/>
<defs>
<linearGradient id="paint0_linear_273_3" x1="3.11795e-05" y1="98.05" x2="196.43" y2="98.05" gradientUnits="userSpaceOnUse">
<stop offset="0.05" stop-color="#23F75F"/>
<stop offset="1" stop-color="#039CEF"/>
</linearGradient>
<linearGradient id="paint1_linear_273_3" x1="22.44" y1="73.8901" x2="125.9" y2="73.8901" gradientUnits="userSpaceOnUse">
<stop offset="0.05" stop-color="#23F75F"/>
<stop offset="1" stop-color="#039CEF"/>
</linearGradient>
</defs>
</svg>
