<?xml version="1.0" encoding="UTF-8" standalone="no"?>
<svg
   xmlns:dc="http://purl.org/dc/elements/1.1/"
   xmlns:cc="http://creativecommons.org/ns#"
   xmlns:rdf="http://www.w3.org/1999/02/22-rdf-syntax-ns#"
   xmlns:svg="http://www.w3.org/2000/svg"
   xmlns="http://www.w3.org/2000/svg"
   xmlns:sodipodi="http://sodipodi.sourceforge.net/DTD/sodipodi-0.dtd"
   xmlns:inkscape="http://www.inkscape.org/namespaces/inkscape"
   id="Layer_1"
   data-name="Layer 1"
   viewBox="0 0 1131.98 676.92"
   version="1.1"
   sodipodi:docname="products_aws_white.svg"
   inkscape:version="1.0.1 (3bc2e813f5, 2020-09-07)">
  <metadata
     id="metadata15">
    <rdf:RDF>
      <cc:Work
         rdf:about="">
        <dc:format>image/svg+xml</dc:format>
        <dc:type
           rdf:resource="http://purl.org/dc/dcmitype/StillImage" />
        <dc:title></dc:title>
      </cc:Work>
    </rdf:RDF>
  </metadata>
  <sodipodi:namedview
     pagecolor="#ffffff"
     bordercolor="#666666"
     borderopacity="1"
     objecttolerance="10"
     gridtolerance="10"
     guidetolerance="10"
     inkscape:pageopacity="0"
     inkscape:pageshadow="2"
     inkscape:window-width="1920"
     inkscape:window-height="1024"
     id="namedview13"
     showgrid="false"
     inkscape:zoom="1.0821746"
     inkscape:cx="567.83812"
     inkscape:cy="338.45999"
     inkscape:window-x="0"
     inkscape:window-y="27"
     inkscape:window-maximized="1"
     inkscape:current-layer="Layer_1" />
  <defs
     id="defs4">
    <style
       id="style2">.cls-1{fill:#252f3e;}.cls-2{fill:#f90;fill-rule:evenodd;}</style>
  </defs>
  <path
     class="cls-1"
     d="M319,245.84c0,13.93,1.51,25.23,4.14,33.51a202.94,202.94,0,0,0,12.05,27.11,16.39,16.39,0,0,1,2.64,8.66c0,3.76-2.26,7.53-7.16,11.29L307,342.22a18.06,18.06,0,0,1-9.79,3.39c-3.77,0-7.53-1.88-11.3-5.27a116.47,116.47,0,0,1-13.55-17.69c-3.77-6.4-7.53-13.56-11.67-22.22q-44.05,52-110.69,52c-31.62,0-56.85-9-75.3-27.11S46.8,283.12,46.8,253c0-32,11.3-58,34.26-77.56s53.47-29.36,92.24-29.36a298.52,298.52,0,0,1,39.91,3c13.93,1.88,28.24,4.89,43.3,8.28V129.89c0-28.62-6-48.57-17.7-60.24C226.76,58,206.43,52.33,177.44,52.33a171.26,171.26,0,0,0-40.66,4.9A299,299,0,0,0,96.12,70,108.34,108.34,0,0,1,83,74.92a23.27,23.27,0,0,1-6,1.13c-5.27,0-7.9-3.76-7.9-11.67V45.93c0-6,.75-10.54,2.63-13.18s5.27-5.27,10.54-7.9Q102,14.68,129.63,7.91C148.08,3,167.66.75,188.36.75c44.8,0,77.56,10.17,98.64,30.5,20.71,20.33,31.25,51.2,31.25,92.61v122ZM166.15,303.07c12.42,0,25.22-2.26,38.78-6.78s25.6-12.8,35.76-24.09a59.54,59.54,0,0,0,12.8-24.1,135,135,0,0,0,3.77-32.75V199.54a312,312,0,0,0-34.64-6.4,282.85,282.85,0,0,0-35.39-2.26c-25.22,0-43.67,4.89-56.09,15.06s-18.45,24.47-18.45,43.29c0,17.7,4.52,30.87,13.93,39.91C135.65,298.55,148.83,303.07,166.15,303.07Zm302.32,40.66c-6.78,0-11.3-1.13-14.31-3.76-3-2.26-5.65-7.53-7.91-14.69l-88.47-291c-2.26-7.53-3.39-12.42-3.39-15.06,0-6,3-9.41,9-9.41h36.89c7.16,0,12.05,1.13,14.69,3.76,3,2.26,5.27,7.53,7.53,14.69l63.25,249.23L544.52,28.24c1.88-7.53,4.14-12.43,7.15-14.69S560,9.79,566.73,9.79h30.12c7.15,0,12,1.13,15.06,3.76,3,2.26,5.65,7.53,7.15,14.69l59.49,252.24L743.68,28.24c2.26-7.53,4.89-12.43,7.53-14.69,3-2.26,7.9-3.76,14.68-3.76h35c6,0,9.42,3,9.42,9.41a37.08,37.08,0,0,1-.76,6,53.38,53.38,0,0,1-2.63,9.42l-90.74,291q-3.37,11.29-7.9,14.68c-3,2.26-7.91,3.77-14.31,3.77H661.6c-7.15,0-12-1.13-15.06-3.77s-5.64-7.53-7.15-15.06L581,82.45l-58,242.46c-1.88,7.53-4.14,12.42-7.16,15.06s-8.28,3.76-15,3.76ZM952.25,353.9a249.05,249.05,0,0,1-58-6.78c-18.82-4.52-33.51-9.41-43.29-15.06-6-3.39-10.17-7.15-11.68-10.54A26.69,26.69,0,0,1,837.05,311v-19.2c0-7.91,3-11.68,8.65-11.68a21.42,21.42,0,0,1,6.78,1.13c2.26.76,5.65,2.26,9.41,3.77a205,205,0,0,0,41.42,13.18,226.21,226.21,0,0,0,44.8,4.51c23.72,0,42.17-4.14,55-12.42s19.57-20.33,19.57-35.77c0-10.54-3.39-19.2-10.16-26.35s-19.58-13.55-38-19.58l-54.59-16.94c-27.48-8.66-47.81-21.46-60.24-38.4-12.42-16.57-18.82-35-18.82-54.59q0-23.72,10.17-41.79A96.69,96.69,0,0,1,878.08,26,119.6,119.6,0,0,1,917.24,6.4C932.3,1.88,948.11,0,964.67,0A188.89,188.89,0,0,1,989.9,1.51c8.66,1.13,16.56,2.63,24.47,4.14,7.53,1.88,14.68,3.76,21.46,6a81.89,81.89,0,0,1,15.81,6.78c5.27,3,9,6,11.3,9.41q3.39,4.52,3.39,12.42V58c0,7.9-3,12.05-8.66,12.05-3,0-7.91-1.51-14.31-4.52q-32.19-14.69-72.29-14.68c-21.46,0-38.4,3.38-50.07,10.54s-17.69,18.07-17.69,33.5A35.53,35.53,0,0,0,914.6,121.6c7.53,7.16,21.46,14.31,41.42,20.71l53.46,16.94c27.1,8.66,46.68,20.71,58.35,36.15s17.32,33.13,17.32,52.7c0,16.19-3.39,30.88-9.79,43.68a101.34,101.34,0,0,1-27.48,33.13c-11.67,9.41-25.6,16.19-41.79,21.08A179.06,179.06,0,0,1,952.25,353.9Z"
     id="path6"
     style="fill:#ffffff" />
  <path
     class="cls-2"
     d="M1023.41,536.87c-123.87,91.48-303.83,140-458.56,140C348,676.92,152.6,596.73,5,463.45c-11.67-10.54-1.12-24.85,12.81-16.56C177.44,539.5,374.35,595.6,578,595.6c137.42,0,288.39-28.61,427.31-87.35C1026,498.84,1043.74,521.81,1023.41,536.87Z"
     id="path8" />
  <path
     class="cls-2"
     d="M1075,478.14c-15.81-20.33-104.66-9.79-144.94-4.9-12,1.51-13.93-9-3-16.94,70.77-49.7,187.11-35.39,200.66-18.82,13.56,16.94-3.76,133.27-70,189-10.17,8.66-20,4.14-15.44-7.15C1057.29,582.05,1090.8,498.09,1075,478.14Z"
     id="path10" />
</svg>
