<svg xmlns="http://www.w3.org/2000/svg" xmlns:xlink="http://www.w3.org/1999/xlink" viewBox="0 0 560.46 696"><defs><style>.cls-1{mask:url(#mask);filter:url(#luminosity-noclip-3);}.cls-129,.cls-2,.cls-21,.cls-4,.cls-70,.cls-83,.cls-93{mix-blend-mode:multiply;}.cls-2{fill:url(#linear-gradient);}.cls-3{mask:url(#mask-2);filter:url(#luminosity-noclip-4);}.cls-4{fill:url(#linear-gradient-2);}.cls-5{isolation:isolate;}.cls-6{opacity:0.2;}.cls-7,.cls-71,.cls-97{opacity:0;}.cls-72,.cls-8,.cls-98{opacity:0.09;}.cls-73,.cls-9,.cls-99{opacity:0.18;}.cls-10,.cls-100,.cls-74{opacity:0.27;}.cls-101,.cls-11,.cls-75{opacity:0.36;}.cls-102,.cls-12,.cls-76{opacity:0.45;}.cls-103,.cls-13,.cls-77{opacity:0.55;}.cls-104,.cls-14,.cls-78{opacity:0.64;}.cls-105,.cls-15,.cls-79{opacity:0.73;}.cls-106,.cls-16,.cls-80{opacity:0.82;}.cls-107,.cls-17,.cls-81{opacity:0.91;}.cls-18{opacity:0.1;}.cls-19{fill:url(#New_Gradient_Swatch_copy_26);}.cls-20{fill:url(#New_Gradient_Swatch_copy_26-2);}.cls-21{fill:url(#linear-gradient-3);}.cls-110,.cls-132,.cls-133,.cls-134,.cls-135,.cls-136,.cls-137,.cls-138,.cls-139,.cls-140,.cls-141,.cls-142,.cls-143,.cls-22,.cls-25,.cls-61,.cls-69,.cls-84,.cls-96{mix-blend-mode:color-dodge;}.cls-22{fill:url(#Radial_Gradient_1);}.cls-23,.cls-24,.cls-49{mix-blend-mode:overlay;}.cls-23{fill:url(#New_Gradient_Swatch_copy_9);}.cls-24{fill:url(#New_Gradient_Swatch_copy_8);}.cls-26{fill:url(#Radial_Gradient_1-2);}.cls-27{fill:url(#Radial_Gradient_1-3);}.cls-28{fill:url(#Radial_Gradient_1-4);}.cls-29{fill:url(#Radial_Gradient_1-5);}.cls-30{fill:url(#Radial_Gradient_1-6);}.cls-31{fill:url(#Radial_Gradient_1-7);}.cls-32{fill:url(#Radial_Gradient_1-8);}.cls-33{fill:url(#Radial_Gradient_1-9);}.cls-34{fill:url(#Radial_Gradient_1-10);}.cls-35{fill:url(#Radial_Gradient_1-11);}.cls-36{fill:url(#Radial_Gradient_1-12);}.cls-37{fill:url(#Radial_Gradient_1-13);}.cls-38{fill:url(#Radial_Gradient_1-14);}.cls-39{fill:url(#Radial_Gradient_1-15);}.cls-40{fill:url(#Radial_Gradient_1-16);}.cls-41{fill:url(#Radial_Gradient_1-17);}.cls-42{fill:#ebdef3;}.cls-43{fill:url(#New_Gradient_Swatch_copy_8-2);}.cls-44{fill:url(#New_Gradient_Swatch_copy_8-3);}.cls-45{fill:url(#New_Gradient_Swatch_copy_8-4);}.cls-46{fill:url(#Radial_Gradient_1-18);}.cls-47{fill:url(#Radial_Gradient_1-19);}.cls-48{fill:url(#Radial_Gradient_1-20);}.cls-50{fill:url(#New_Gradient_Swatch_copy_8-5);}.cls-51{fill:url(#New_Gradient_Swatch_copy_8-6);}.cls-52{fill:url(#New_Gradient_Swatch_copy_8-7);}.cls-53{fill:url(#New_Gradient_Swatch_copy_8-8);}.cls-54{fill:url(#New_Gradient_Swatch_copy_8-9);}.cls-55{fill:url(#New_Gradient_Swatch_copy_8-10);}.cls-56{fill:url(#New_Gradient_Swatch_copy_8-11);}.cls-57{fill:url(#New_Gradient_Swatch_copy_8-12);}.cls-58{fill:url(#New_Gradient_Swatch_copy_8-13);}.cls-59{fill:url(#New_Gradient_Swatch_copy_8-14);}.cls-60{fill:url(#linear-gradient-4);}.cls-61{fill:url(#radial-gradient);}.cls-133,.cls-62{opacity:0.6;}.cls-111,.cls-112,.cls-128,.cls-131,.cls-62{mix-blend-mode:screen;}.cls-62{fill:url(#radial-gradient-2);}.cls-63{fill:url(#linear-gradient-5);}.cls-64{fill:url(#linear-gradient-6);}.cls-65{fill:url(#linear-gradient-7);}.cls-66{fill:url(#linear-gradient-8);}.cls-67{fill:url(#linear-gradient-9);}.cls-68{fill:url(#linear-gradient-10);}.cls-69{fill:url(#radial-gradient-3);}.cls-70{opacity:0.3;}.cls-71{fill:url(#linear-gradient-11);}.cls-72{fill:url(#linear-gradient-12);}.cls-73{fill:url(#linear-gradient-13);}.cls-74{fill:url(#linear-gradient-14);}.cls-75{fill:url(#linear-gradient-15);}.cls-76{fill:url(#linear-gradient-16);}.cls-77{fill:url(#linear-gradient-17);}.cls-78{fill:url(#linear-gradient-18);}.cls-79{fill:url(#linear-gradient-19);}.cls-80{fill:url(#linear-gradient-20);}.cls-81{fill:url(#linear-gradient-21);}.cls-82{fill:url(#linear-gradient-22);}.cls-83{fill:url(#linear-gradient-23);}.cls-84{fill:url(#radial-gradient-4);}.cls-85{fill:#fff;}.cls-86{fill:url(#linear-gradient-24);}.cls-87{fill:url(#linear-gradient-25);}.cls-88{fill:url(#linear-gradient-26);}.cls-89{fill:url(#linear-gradient-27);}.cls-90{fill:url(#linear-gradient-28);}.cls-131,.cls-91,.cls-96{fill:#414042;}.cls-92{fill:url(#linear-gradient-29);}.cls-93{fill:url(#linear-gradient-30);}.cls-94{fill:url(#linear-gradient-31);}.cls-95{fill:#9122eb;}.cls-97{fill:url(#linear-gradient-32);}.cls-98{fill:url(#linear-gradient-33);}.cls-99{fill:url(#linear-gradient-34);}.cls-100{fill:url(#linear-gradient-35);}.cls-101{fill:url(#linear-gradient-36);}.cls-102{fill:url(#linear-gradient-37);}.cls-103{fill:url(#linear-gradient-38);}.cls-104{fill:url(#linear-gradient-39);}.cls-105{fill:url(#linear-gradient-40);}.cls-106{fill:url(#linear-gradient-41);}.cls-107{fill:url(#linear-gradient-42);}.cls-108{fill:url(#linear-gradient-43);}.cls-109{fill:url(#linear-gradient-44);}.cls-110{fill:url(#radial-gradient-5);}.cls-111,.cls-129{opacity:0.5;}.cls-111{fill:url(#linear-gradient-45);}.cls-113{fill:#25054d;}.cls-114{fill:url(#New_Gradient_Swatch_copy_15);}.cls-115{mask:url(#mask-3);}.cls-116{fill:url(#linear-gradient-46);}.cls-117{fill:url(#linear-gradient-47);}.cls-118{fill:url(#linear-gradient-48);}.cls-119{fill:url(#linear-gradient-49);}.cls-120{mask:url(#mask-4);}.cls-121{fill:url(#linear-gradient-50);}.cls-122{fill:url(#linear-gradient-51);}.cls-123{fill:url(#linear-gradient-52);}.cls-124{fill:url(#linear-gradient-53);}.cls-125{fill:url(#New_Gradient_Swatch_copy_9-2);}.cls-126{fill:url(#New_Gradient_Swatch_copy_35);}.cls-127{fill:url(#New_Gradient_Swatch_copy_35-2);}.cls-128{fill:url(#linear-gradient-54);}.cls-129{fill:url(#linear-gradient-55);}.cls-130{fill:url(#linear-gradient-56);}.cls-132,.cls-133,.cls-134,.cls-135,.cls-136,.cls-144{fill:#7c1dc9;}.cls-132{opacity:0.8;}.cls-134{opacity:0.4;}.cls-135{opacity:0.25;}.cls-136{opacity:0.15;}.cls-137{fill:url(#radial-gradient-6);}.cls-138{fill:url(#radial-gradient-7);}.cls-139{fill:url(#radial-gradient-8);}.cls-140{fill:url(#radial-gradient-9);}.cls-141{fill:url(#radial-gradient-10);}.cls-142{fill:url(#radial-gradient-11);}.cls-143{fill:url(#radial-gradient-12);}.cls-144{font-size:34.55px;font-family:MyriadPro-Regular, Myriad Pro;}.cls-145{filter:url(#luminosity-noclip-2);}.cls-146{filter:url(#luminosity-noclip);}</style><filter id="luminosity-noclip" x="361.18" y="-8868" width="6.4" height="32766" filterUnits="userSpaceOnUse" color-interpolation-filters="sRGB"><feFlood flood-color="#fff" result="bg"/><feBlend in="SourceGraphic" in2="bg"/></filter><mask id="mask" x="361.18" y="-8868" width="6.4" height="32766" maskUnits="userSpaceOnUse"><g class="cls-146"/></mask><linearGradient id="linear-gradient" x1="4103.58" y1="549.16" x2="4042.26" y2="433.43" gradientTransform="matrix(-1, 0, 0, 1, 4442.77, 0)" gradientUnits="userSpaceOnUse"><stop offset="0"/><stop offset="1" stop-color="#fff"/></linearGradient><filter id="luminosity-noclip-2" x="361.32" y="-8868" width="6.05" height="32766" filterUnits="userSpaceOnUse" color-interpolation-filters="sRGB"><feFlood flood-color="#fff" result="bg"/><feBlend in="SourceGraphic" in2="bg"/></filter><mask id="mask-2" x="361.32" y="-8868" width="6.05" height="32766" maskUnits="userSpaceOnUse"><g class="cls-145"/></mask><linearGradient id="linear-gradient-2" x1="-3401.44" y1="3616.97" x2="-3425.96" y2="3570.71" gradientTransform="matrix(0.85, 0.01, -0.01, -0.84, 3314.51, 3476.16)" xlink:href="#linear-gradient"/><linearGradient id="New_Gradient_Swatch_copy_26" x1="124.59" y1="282.49" x2="152.07" y2="124.97" gradientUnits="userSpaceOnUse"><stop offset="0.03" stop-color="#7c1dc9"/><stop offset="0.21" stop-color="#6e41d2"/><stop offset="0.62" stop-color="#4c9be8"/><stop offset="1" stop-color="#2af6ff"/></linearGradient><linearGradient id="New_Gradient_Swatch_copy_26-2" x1="1325.79" y1="1542.99" x2="1114.43" y2="1412.99" gradientTransform="matrix(0.87, 0.5, 0.5, 1.44, -1658.64, -2547.63)" xlink:href="#New_Gradient_Swatch_copy_26"/><linearGradient id="linear-gradient-3" x1="95.27" y1="197.35" x2="265.59" y2="196.8" gradientUnits="userSpaceOnUse"><stop offset="0" stop-color="#fff"/><stop offset="0.04" stop-color="#f7f7f7"/><stop offset="0.99" stop-color="#45108a"/></linearGradient><radialGradient id="Radial_Gradient_1" cx="137.73" cy="193.9" r="130.94" gradientUnits="userSpaceOnUse"><stop offset="0" stop-color="#fff"/><stop offset="1"/></radialGradient><linearGradient id="New_Gradient_Swatch_copy_9" x1="-42.13" y1="1522.56" x2="-7.03" y2="1522.56" gradientTransform="matrix(0.87, 0.5, 0, 1.15, 232.98, -1455.69)" gradientUnits="userSpaceOnUse"><stop offset="0.04" stop-color="#9f19ab"/><stop offset="0.24" stop-color="#ae25b1"/><stop offset="0.65" stop-color="#d744bf"/><stop offset="1" stop-color="#ff63ce"/></linearGradient><linearGradient id="New_Gradient_Swatch_copy_8" x1="-20" y1="1522.56" x2="15.1" y2="1522.56" gradientTransform="matrix(0.87, 0.5, 0, 1.15, 232.98, -1455.69)" gradientUnits="userSpaceOnUse"><stop offset="0.04" stop-color="#ffa98c"/><stop offset="0.32" stop-color="#ffb892"/><stop offset="0.86" stop-color="#fee1a3"/><stop offset="1" stop-color="#feeca8"/></linearGradient><radialGradient id="Radial_Gradient_1-2" cx="44.05" cy="153.27" r="7.04" xlink:href="#Radial_Gradient_1"/><radialGradient id="Radial_Gradient_1-3" cx="54.73" cy="158.52" r="6.78" xlink:href="#Radial_Gradient_1"/><radialGradient id="Radial_Gradient_1-4" cx="65.4" cy="165.5" r="7.33" xlink:href="#Radial_Gradient_1"/><radialGradient id="Radial_Gradient_1-5" cx="76.08" cy="171.76" r="7.04" xlink:href="#Radial_Gradient_1"/><radialGradient id="Radial_Gradient_1-6" cx="97.44" cy="183.18" r="6.78" xlink:href="#Radial_Gradient_1"/><radialGradient id="Radial_Gradient_1-7" cx="108.11" cy="190.16" r="7.33" xlink:href="#Radial_Gradient_1"/><radialGradient id="Radial_Gradient_1-8" cx="118.79" cy="196.15" r="7.21" xlink:href="#Radial_Gradient_1"/><radialGradient id="Radial_Gradient_1-9" cx="129.47" cy="202.49" r="7.09" xlink:href="#Radial_Gradient_1"/><radialGradient id="Radial_Gradient_1-10" cx="150.82" cy="214" r="6.78" xlink:href="#Radial_Gradient_1"/><radialGradient id="Radial_Gradient_1-11" cx="161.5" cy="220.17" r="6.78" xlink:href="#Radial_Gradient_1"/><radialGradient id="Radial_Gradient_1-12" cx="172.18" cy="226.33" r="6.78" xlink:href="#Radial_Gradient_1"/><radialGradient id="Radial_Gradient_1-13" cx="182.86" cy="232.5" r="6.78" xlink:href="#Radial_Gradient_1"/><radialGradient id="Radial_Gradient_1-14" cx="204.21" cy="245.64" r="7.09" xlink:href="#Radial_Gradient_1"/><radialGradient id="Radial_Gradient_1-15" cx="214.89" cy="251.81" r="7.09" xlink:href="#Radial_Gradient_1"/><radialGradient id="Radial_Gradient_1-16" cx="225.57" cy="257.97" r="7.09" xlink:href="#Radial_Gradient_1"/><radialGradient id="Radial_Gradient_1-17" cx="236.24" cy="264.14" r="7.09" xlink:href="#Radial_Gradient_1"/><linearGradient id="New_Gradient_Swatch_copy_8-2" x1="-183.27" y1="1480.13" x2="-225.92" y2="1445.29" xlink:href="#New_Gradient_Swatch_copy_8"/><linearGradient id="New_Gradient_Swatch_copy_8-3" x1="-184.96" y1="1472.24" x2="-223.89" y2="1440.44" xlink:href="#New_Gradient_Swatch_copy_8"/><linearGradient id="New_Gradient_Swatch_copy_8-4" x1="-185.38" y1="1484.84" x2="-224.18" y2="1453.14" xlink:href="#New_Gradient_Swatch_copy_8"/><radialGradient id="Radial_Gradient_1-18" cx="55.76" cy="138.96" r="13.3" xlink:href="#Radial_Gradient_1"/><radialGradient id="Radial_Gradient_1-19" cx="55.76" cy="130.92" r="13.98" xlink:href="#Radial_Gradient_1"/><radialGradient id="Radial_Gradient_1-20" cx="56.54" cy="122.73" r="12.92" xlink:href="#Radial_Gradient_1"/><linearGradient id="New_Gradient_Swatch_copy_8-5" x1="-119.13" y1="1425.25" x2="-25.01" y2="1464.98" xlink:href="#New_Gradient_Swatch_copy_8"/><linearGradient id="New_Gradient_Swatch_copy_8-6" x1="-117.19" y1="1424.37" x2="-27.8" y2="1462.1" xlink:href="#New_Gradient_Swatch_copy_8"/><linearGradient id="New_Gradient_Swatch_copy_8-7" x1="-116.93" y1="1421.29" x2="-22.58" y2="1461.11" xlink:href="#New_Gradient_Swatch_copy_8"/><linearGradient id="New_Gradient_Swatch_copy_8-8" x1="-114.25" y1="1415.65" x2="-19.72" y2="1455.56" xlink:href="#New_Gradient_Swatch_copy_8"/><linearGradient id="New_Gradient_Swatch_copy_8-9" x1="-109.98" y1="1414.95" x2="-22.08" y2="1452.05" xlink:href="#New_Gradient_Swatch_copy_8"/><linearGradient id="New_Gradient_Swatch_copy_8-10" x1="-111.06" y1="1412.58" x2="-18.78" y2="1451.54" xlink:href="#New_Gradient_Swatch_copy_8"/><linearGradient id="New_Gradient_Swatch_copy_8-11" x1="-109.02" y1="1406.45" x2="-14.91" y2="1446.18" xlink:href="#New_Gradient_Swatch_copy_8"/><linearGradient id="New_Gradient_Swatch_copy_8-12" x1="-107.4" y1="1405.36" x2="-14.2" y2="1444.7" xlink:href="#New_Gradient_Swatch_copy_8"/><linearGradient id="New_Gradient_Swatch_copy_8-13" x1="-102.69" y1="1403.39" x2="-13.3" y2="1441.12" xlink:href="#New_Gradient_Swatch_copy_8"/><linearGradient id="New_Gradient_Swatch_copy_8-14" x1="-104.42" y1="1396.92" x2="-9.89" y2="1436.83" xlink:href="#New_Gradient_Swatch_copy_8"/><linearGradient id="linear-gradient-4" x1="132.54" y1="21.27" x2="359.66" y2="414.64" gradientUnits="userSpaceOnUse"><stop offset="0.06" stop-color="#200041"/><stop offset="0.26" stop-color="#210243"/><stop offset="0.36" stop-color="#25084b"/><stop offset="0.43" stop-color="#2c1358"/><stop offset="0.47" stop-color="#311b61"/><stop offset="0.48" stop-color="#351f65"/><stop offset="0.5" stop-color="#422c73"/><stop offset="0.51" stop-color="#584188"/><stop offset="0.52" stop-color="#765fa7"/><stop offset="0.53" stop-color="#8770b8"/><stop offset="0.54" stop-color="#7e67ae"/><stop offset="0.56" stop-color="#5c468d"/><stop offset="0.59" stop-color="#442e75"/><stop offset="0.61" stop-color="#362066"/><stop offset="0.63" stop-color="#311b61"/><stop offset="0.67" stop-color="#2a1155"/><stop offset="0.75" stop-color="#230446"/><stop offset="0.81" stop-color="#200041"/><stop offset="1" stop-color="#200041"/></linearGradient><radialGradient id="radial-gradient" cx="485.48" cy="181.09" r="426.2" gradientUnits="userSpaceOnUse"><stop offset="0" stop-color="#711f56"/><stop offset="0.16" stop-color="#6c1e52"/><stop offset="0.36" stop-color="#5c1946"/><stop offset="0.58" stop-color="#431233"/><stop offset="0.82" stop-color="#200918"/><stop offset="1"/></radialGradient><radialGradient id="radial-gradient-2" cx="414.18" cy="150.64" r="251.09" gradientUnits="userSpaceOnUse"><stop offset="0" stop-color="#af8afc"/><stop offset="1" stop-color="#10054d"/></radialGradient><linearGradient id="linear-gradient-5" x1="434.43" y1="384.03" x2="-259.71" y2="166.74" gradientUnits="userSpaceOnUse"><stop offset="0.19" stop-color="#3d065f"/><stop offset="0.93" stop-color="#3d065f"/></linearGradient><linearGradient id="linear-gradient-6" x1="443.48" y1="652.68" x2="90.97" y2="-92.17" gradientUnits="userSpaceOnUse"><stop offset="0" stop-color="#311b61"/><stop offset="0.2" stop-color="#290f52"/><stop offset="0.49" stop-color="#200041"/><stop offset="1" stop-color="#0f001f"/></linearGradient><linearGradient id="linear-gradient-7" x1="185.11" y1="340.63" x2="406.48" y2="340.63" xlink:href="#linear-gradient-6"/><linearGradient id="linear-gradient-8" x1="39.14" y1="-148.77" x2="375.95" y2="493.47" gradientUnits="userSpaceOnUse"><stop offset="0.05" stop-color="#23f75f"/><stop offset="1" stop-color="#039cef"/></linearGradient><linearGradient id="linear-gradient-9" x1="-1306.77" y1="8869.06" x2="-1267.17" y2="8869.06" gradientTransform="matrix(-0.5, 1.44, -0.87, 0.5, 7465.46, -2308.73)" xlink:href="#linear-gradient-6"/><linearGradient id="linear-gradient-10" x1="438.53" y1="268.62" x2="411.22" y2="267.45" gradientUnits="userSpaceOnUse"><stop offset="0" stop-color="#3d065f"/><stop offset="1" stop-color="#5f27bd"/></linearGradient><radialGradient id="radial-gradient-3" cx="424.8" cy="256.97" r="16.04" xlink:href="#radial-gradient"/><linearGradient id="linear-gradient-11" x1="62.24" y1="-71.74" x2="361.92" y2="499.7" gradientUnits="userSpaceOnUse"><stop offset="0.01" stop-color="#9f19ab"/><stop offset="0.43" stop-color="#5f27bd"/><stop offset="0.9" stop-color="#3d065f"/></linearGradient><linearGradient id="linear-gradient-12" x1="63" y1="-69.6" x2="361.23" y2="499.05" xlink:href="#linear-gradient-11"/><linearGradient id="linear-gradient-13" x1="63.77" y1="-67.47" x2="360.53" y2="498.4" xlink:href="#linear-gradient-11"/><linearGradient id="linear-gradient-14" x1="64.53" y1="-65.33" x2="359.83" y2="497.75" xlink:href="#linear-gradient-11"/><linearGradient id="linear-gradient-15" x1="65.3" y1="-63.19" x2="359.13" y2="497.1" xlink:href="#linear-gradient-11"/><linearGradient id="linear-gradient-16" x1="66.06" y1="-61.06" x2="358.44" y2="496.45" xlink:href="#linear-gradient-11"/><linearGradient id="linear-gradient-17" x1="66.82" y1="-58.92" x2="357.74" y2="495.8" xlink:href="#linear-gradient-11"/><linearGradient id="linear-gradient-18" x1="67.59" y1="-56.78" x2="357.04" y2="495.15" xlink:href="#linear-gradient-11"/><linearGradient id="linear-gradient-19" x1="68.35" y1="-54.65" x2="356.35" y2="494.5" xlink:href="#linear-gradient-11"/><linearGradient id="linear-gradient-20" x1="69.12" y1="-52.51" x2="355.65" y2="493.85" xlink:href="#linear-gradient-11"/><linearGradient id="linear-gradient-21" x1="69.88" y1="-50.37" x2="354.95" y2="493.2" xlink:href="#linear-gradient-11"/><linearGradient id="linear-gradient-22" x1="70.65" y1="-48.23" x2="354.25" y2="492.55" xlink:href="#linear-gradient-11"/><linearGradient id="linear-gradient-23" x1="69.46" y1="-50.22" x2="354.04" y2="492.43" xlink:href="#linear-gradient-3"/><radialGradient id="radial-gradient-4" cx="295.8" cy="196.99" r="199.08" xlink:href="#radial-gradient"/><linearGradient id="linear-gradient-24" x1="335.52" y1="325.87" x2="373.69" y2="306.7" gradientTransform="translate(206.57 -143.24) rotate(30.31)" xlink:href="#linear-gradient-11"/><linearGradient id="linear-gradient-25" x1="-215.26" y1="278.95" x2="360.37" y2="278.95" xlink:href="#linear-gradient-11"/><linearGradient id="linear-gradient-26" x1="-159.93" y1="1567.02" x2="26.94" y2="1567.02" gradientTransform="matrix(0.87, 0.5, 0, 1.15, 348.12, -1507.07)" gradientUnits="userSpaceOnUse"><stop offset="0.05" stop-color="#dc3daa"/><stop offset="0.12" stop-color="#de46a6"/><stop offset="0.23" stop-color="#e55e9d"/><stop offset="0.36" stop-color="#f0858d"/><stop offset="0.41" stop-color="#f49587"/><stop offset="0.56" stop-color="#fabf98"/><stop offset="0.7" stop-color="#ffe4a7"/><stop offset="0.73" stop-color="#fae4a9"/><stop offset="0.77" stop-color="#eae6b0"/><stop offset="0.82" stop-color="#d0e8ba"/><stop offset="0.87" stop-color="#adebc9"/><stop offset="0.92" stop-color="#7fefdc"/><stop offset="0.97" stop-color="#47f4f3"/><stop offset="1" stop-color="#2af6ff"/></linearGradient><linearGradient id="linear-gradient-27" x1="-155.78" y1="1529.34" x2="29.94" y2="1529.34" xlink:href="#linear-gradient-26"/><linearGradient id="linear-gradient-28" x1="-152.79" y1="1567.02" x2="34.08" y2="1567.02" xlink:href="#linear-gradient-26"/><linearGradient id="linear-gradient-29" x1="-190.54" y1="1473.01" x2="35.21" y2="1573.62" xlink:href="#linear-gradient-26"/><linearGradient id="linear-gradient-30" x1="145.49" y1="214.42" x2="380.26" y2="319.05" gradientTransform="matrix(1, 0, 0, 1, 0, 0)" xlink:href="#linear-gradient-26"/><linearGradient id="linear-gradient-31" x1="312.7" y1="340.1" x2="339.85" y2="320.08" xlink:href="#linear-gradient-11"/><linearGradient id="linear-gradient-32" x1="121.59" y1="129.53" x2="343.9" y2="553.43" xlink:href="#linear-gradient-11"/><linearGradient id="linear-gradient-33" x1="122.39" y1="132.53" x2="343.37" y2="553.89" xlink:href="#linear-gradient-11"/><linearGradient id="linear-gradient-34" x1="123.2" y1="135.52" x2="342.86" y2="554.36" xlink:href="#linear-gradient-11"/><linearGradient id="linear-gradient-35" x1="124.01" y1="138.5" x2="342.35" y2="554.84" xlink:href="#linear-gradient-11"/><linearGradient id="linear-gradient-36" x1="124.82" y1="141.47" x2="341.86" y2="555.32" xlink:href="#linear-gradient-11"/><linearGradient id="linear-gradient-37" x1="125.64" y1="144.43" x2="341.38" y2="555.81" xlink:href="#linear-gradient-11"/><linearGradient id="linear-gradient-38" x1="126.46" y1="147.38" x2="340.91" y2="556.31" xlink:href="#linear-gradient-11"/><linearGradient id="linear-gradient-39" x1="127.28" y1="150.32" x2="340.46" y2="556.82" xlink:href="#linear-gradient-11"/><linearGradient id="linear-gradient-40" x1="128.1" y1="153.24" x2="340.03" y2="557.34" xlink:href="#linear-gradient-11"/><linearGradient id="linear-gradient-41" x1="128.94" y1="156.16" x2="339.61" y2="557.87" xlink:href="#linear-gradient-11"/><linearGradient id="linear-gradient-42" x1="129.77" y1="159.06" x2="339.21" y2="558.42" xlink:href="#linear-gradient-11"/><linearGradient id="linear-gradient-43" x1="130.61" y1="161.94" x2="338.82" y2="558.97" xlink:href="#linear-gradient-11"/><linearGradient id="linear-gradient-44" x1="84.89" y1="326.37" x2="279.94" y2="468.09" xlink:href="#linear-gradient-8"/><radialGradient id="radial-gradient-5" cx="295.8" cy="377.86" r="199.08" xlink:href="#radial-gradient"/><linearGradient id="linear-gradient-45" x1="290.85" y1="515.36" x2="355.73" y2="402.98" gradientUnits="userSpaceOnUse"><stop offset="0"/><stop offset="1" stop-color="#be3bff"/></linearGradient><radialGradient id="New_Gradient_Swatch_copy_15" cx="363.56" cy="437.62" r="192.94" gradientUnits="userSpaceOnUse"><stop offset="0" stop-color="#ff63ce"/><stop offset="1" stop-color="#9f19ab"/></radialGradient><filter id="luminosity-noclip-3" x="361.18" y="439.05" width="6.4" height="124.86" filterUnits="userSpaceOnUse" color-interpolation-filters="sRGB"><feFlood flood-color="#fff" result="bg"/><feBlend in="SourceGraphic" in2="bg"/></filter><mask id="mask-3" x="361.18" y="439.05" width="6.4" height="124.86" maskUnits="userSpaceOnUse"><g class="cls-1"><polygon class="cls-2" points="361.18 559.24 367.58 563.91 367.58 441.61 363.74 439.05 361.18 439.36 361.18 559.24"/></g></mask><linearGradient id="linear-gradient-46" x1="4103.58" y1="549.16" x2="4042.26" y2="433.43" gradientTransform="matrix(-1, 0, 0, 1, 4442.77, 0)" gradientUnits="userSpaceOnUse"><stop offset="0" stop-color="#5513ab"/><stop offset="1" stop-color="#be3bff"/></linearGradient><linearGradient id="linear-gradient-47" x1="5452.59" y1="12618.37" x2="5257.43" y2="12726.47" gradientTransform="matrix(-0.59, -1.01, -1.01, 0.59, 16324.91, -1646.5)" gradientUnits="userSpaceOnUse"><stop offset="0" stop-color="#271273"/><stop offset="0.14" stop-color="#1f0e5c"/><stop offset="0.4" stop-color="#120834"/><stop offset="0.64" stop-color="#080418"/><stop offset="0.85" stop-color="#020106"/><stop offset="1"/></linearGradient><linearGradient id="linear-gradient-48" x1="5840.12" y1="12975.78" x2="5704.54" y2="13052.84" gradientTransform="matrix(-0.51, -0.86, -0.86, 0.51, 14508.82, -1147.25)" gradientUnits="userSpaceOnUse"><stop offset="0" stop-color="#82288f"/><stop offset="0.31" stop-color="#511959"/><stop offset="0.62" stop-color="#250c29"/><stop offset="0.86" stop-color="#0a030b"/><stop offset="1"/></linearGradient><linearGradient id="linear-gradient-49" x1="5788.86" y1="13004.35" x2="5705.04" y2="13053.21" gradientTransform="matrix(-0.51, -0.86, -0.86, 0.51, 14508.82, -1147.25)" gradientUnits="userSpaceOnUse"><stop offset="0" stop-color="#dc3daa"/><stop offset="0.25" stop-color="#a32d7e"/><stop offset="0.77" stop-color="#2f0d24"/><stop offset="1"/></linearGradient><filter id="luminosity-noclip-4" x="361.32" y="400.9" width="6.05" height="40.67" filterUnits="userSpaceOnUse" color-interpolation-filters="sRGB"><feFlood flood-color="#fff" result="bg"/><feBlend in="SourceGraphic" in2="bg"/></filter><mask id="mask-4" x="361.32" y="400.9" width="6.05" height="40.67" maskUnits="userSpaceOnUse"><g class="cls-3"><polygon class="cls-4" points="366.79 402.5 361.32 400.9 361.91 440.69 365.19 441.57 367.37 441.5 366.79 402.5"/></g></mask><linearGradient id="linear-gradient-50" x1="-3401.44" y1="3616.97" x2="-3425.96" y2="3570.71" gradientTransform="matrix(0.85, 0.01, -0.01, -0.84, 3314.51, 3476.16)" xlink:href="#linear-gradient-46"/><linearGradient id="linear-gradient-51" x1="-185.03" y1="8496.78" x2="-246.5" y2="8530.83" gradientTransform="matrix(0.51, 0.86, 0.86, -0.51, -6867.42, 4940.62)" xlink:href="#linear-gradient-47"/><linearGradient id="linear-gradient-52" x1="-203.91" y1="8506.78" x2="-246.58" y2="8531.04" gradientTransform="matrix(0.51, 0.86, 0.86, -0.51, -6867.42, 4940.62)" xlink:href="#linear-gradient-48"/><linearGradient id="linear-gradient-53" x1="-219.98" y1="8515.89" x2="-246.35" y2="8531.26" gradientTransform="matrix(0.51, 0.86, 0.86, -0.51, -6867.42, 4940.62)" xlink:href="#linear-gradient-49"/><linearGradient id="New_Gradient_Swatch_copy_9-2" x1="4059.97" y1="415.09" x2="4083.94" y2="444.01" gradientTransform="matrix(-1, 0, 0, 1, 4442.77, 0)" xlink:href="#New_Gradient_Swatch_copy_9"/><linearGradient id="New_Gradient_Swatch_copy_35" x1="139.89" y1="1797.68" x2="111.9" y2="1770.45" gradientTransform="matrix(0.87, 0.5, 0, 1.15, 232.98, -1455.69)" gradientUnits="userSpaceOnUse"><stop offset="0" stop-color="#9f79c8"/><stop offset="0.14" stop-color="#a580cb"/><stop offset="0.33" stop-color="#b492d3"/><stop offset="0.55" stop-color="#cdb0e1"/><stop offset="0.58" stop-color="#d1b4e3"/><stop offset="0.76" stop-color="#dbc4e9"/><stop offset="1" stop-color="#ebdef3"/></linearGradient><linearGradient id="New_Gradient_Swatch_copy_35-2" x1="305.91" y1="579.94" x2="286.57" y2="543.55" gradientTransform="matrix(1, 0, 0, 1, 0, 0)" xlink:href="#New_Gradient_Swatch_copy_35"/><linearGradient id="linear-gradient-54" x1="295.38" y1="563.38" x2="267.39" y2="562.7" gradientUnits="userSpaceOnUse"><stop offset="0" stop-color="#7c1dc9"/><stop offset="1"/></linearGradient><linearGradient id="linear-gradient-55" x1="272.34" y1="650.23" x2="321.18" y2="553.47" xlink:href="#linear-gradient-11"/><linearGradient id="linear-gradient-56" x1="202.72" y1="454.9" x2="372.22" y2="570.73" gradientTransform="matrix(1, 0, 0, 1, 0, 0)" xlink:href="#linear-gradient-26"/><radialGradient id="radial-gradient-6" cx="-206.59" cy="2602.06" r="32.29" gradientTransform="matrix(-0.69, 0.72, 0.72, 0.69, -1657.27, -1225.13)" gradientUnits="userSpaceOnUse"><stop offset="0.09" stop-color="#fff"/><stop offset="0.1" stop-color="#e2dee7"/><stop offset="0.12" stop-color="#b0a5bf"/><stop offset="0.14" stop-color="#86749c"/><stop offset="0.16" stop-color="#634c80"/><stop offset="0.17" stop-color="#482d69"/><stop offset="0.19" stop-color="#35175a"/><stop offset="0.21" stop-color="#290a50"/><stop offset="0.23" stop-color="#25054d"/><stop offset="0.27" stop-color="#1d043c"/><stop offset="0.34" stop-color="#120226"/><stop offset="0.42" stop-color="#0a0115"/><stop offset="0.51" stop-color="#040109"/><stop offset="0.65" stop-color="#010002"/><stop offset="1"/></radialGradient><radialGradient id="radial-gradient-7" cx="-228.92" cy="2588.08" r="24.46" gradientTransform="matrix(0.47, 0.88, 0.88, -0.47, -1838.01, 1846.65)" xlink:href="#radial-gradient-6"/><radialGradient id="radial-gradient-8" cx="-247.03" cy="2577.11" r="18.34" gradientTransform="matrix(-0.78, 0.62, 0.62, 0.78, -1475.99, -1457.49)" xlink:href="#radial-gradient-6"/><radialGradient id="radial-gradient-9" cx="-607.22" cy="2647.55" r="32.29" gradientTransform="matrix(-0.71, 0.7, 0.7, 0.71, -2082.97, -1399.19)" xlink:href="#radial-gradient-6"/><radialGradient id="radial-gradient-10" cx="-629.55" cy="2633.57" r="24.46" gradientTransform="matrix(0.08, 1, 1, -0.08, -2390.72, 881.76)" xlink:href="#radial-gradient-6"/><radialGradient id="radial-gradient-11" cx="-647.66" cy="2622.59" r="18.34" gradientTransform="matrix(0.47, 0.88, 0.88, -0.47, -1838.01, 1846.65)" xlink:href="#radial-gradient-6"/><radialGradient id="radial-gradient-12" cx="-479.9" cy="2711.96" r="43.97" gradientTransform="matrix(-0.22, 0.97, 0.97, 0.22, -2425.45, -0.1)" xlink:href="#radial-gradient-6"/></defs><g class="cls-5"><g id="Layer_1" data-name="Layer 1"><g class="cls-6"><path class="cls-7" d="M414.46,696a36.65,36.65,0,0,1-18.31-4.41L285,628.33,173.84,565.08c-6.68-3.86-10.5-10-10.5-16.74,0-7.43,4.61-14.35,12.64-19l72.75-40.93A45.09,45.09,0,0,1,271,482.77a36.64,36.64,0,0,1,18.3,4.42l111.16,63.25L511.58,613.7c6.67,3.85,10.5,9.95,10.5,16.73,0,7.43-4.61,14.35-12.65,19l-72.74,40.93A45,45,0,0,1,414.46,696Z"/><path class="cls-8" d="M178,530.92l19.79-11c.81-.46,37.82-20.65,38.51-20.25l12.67-6.21c5.74-3.31,14.17-4.41,21.46-4.41a37.56,37.56,0,0,1,17.67,4.61l89,50.71,19,10.8,108,61.51a23,23,0,0,1,8.39,8.17,17.06,17.06,0,0,1,2.2,7.78c.23,7.14-4.17,13.91-12.07,18.47l-19.79,11c-.8.46-37.81,20.65-38.51,20.25l-12.66,6.21c-5.74,3.31-14.17,4.41-21.47,4.41a37.59,37.59,0,0,1-17.67-4.61l-89-50.71-19-10.8-108-61.51a23,23,0,0,1-8.39-8.17,17.22,17.22,0,0,1-2.2-7.78C165.66,542.25,170.05,535.48,178,530.92Z"/><path class="cls-9" d="M179.92,532.48l19.26-10.64c1.6-.92,36.25-19.15,37.64-18.35l12.29-5.07c5.16-3,14.13-3.17,20.7-3.17,5.7,0,12.94,2.44,17,4.8l86.42,49.27,18.4,10.49,104.81,59.76a25.06,25.06,0,0,1,8.28,7.78,16.92,16.92,0,0,1,2.4,7.4c.42,6.85-3.73,13.46-11.5,18L476.4,663.34c-1.61.93-36.26,19.15-37.65,18.35l-12.29,5.07c-5.16,3-14.13,3.17-20.69,3.17-5.71,0-12.95-2.43-17-4.8l-86.42-49.27-18.39-10.49L179.1,565.61a25,25,0,0,1-8.28-7.78,16.92,16.92,0,0,1-2.4-7.39C168,543.58,172.15,537,179.92,532.48Z"/><path class="cls-10" d="M181.89,534.05l18.72-10.24c2.41-1.39,34.69-17.66,36.78-16.45l11.91-3.94c4.59-2.65,14.1-1.93,19.93-1.93,5.07,0,12.77,2.89,16.4,5l83.81,47.83,17.83,10.18,101.65,58c2.79,1.61,6.72,5,8.16,7.38a16.7,16.7,0,0,1,2.61,7c.63,6.57-3.3,13-10.93,17.44L470,664.58c-2.41,1.39-34.69,17.65-36.78,16.45L421.35,685c-4.59,2.65-14.1,1.94-19.93,1.94-5.07,0-12.77-2.89-16.4-5l-83.81-47.84-17.83-10.18-101.65-58c-2.79-1.61-6.72-5-8.16-7.38a16.74,16.74,0,0,1-2.61-7C170.33,544.92,174.26,538.46,181.89,534.05Z"/><path class="cls-11" d="M183.86,535.61,202,525.77c3.21-1.85,33.13-16.15,35.91-14.54l11.54-2.81c4-2.32,14.06-.69,19.17-.69,4.44,0,12.58,3.34,15.76,5.18l81.19,46.4,17.28,9.87,98.47,56.27c2.45,1.41,6.75,4.92,8.06,7a16.53,16.53,0,0,1,2.8,6.63c.85,6.28-2.85,12.58-10.35,16.92l-18.18,9.84c-3.21,1.85-33.13,16.15-35.92,14.54l-11.53,2.81c-4,2.31-14.06.69-19.17.69-4.44,0-12.58-3.35-15.76-5.18l-81.2-46.4-17.27-9.87-98.48-56.27c-2.44-1.41-6.74-4.92-8.05-7a16.53,16.53,0,0,1-2.8-6.63C172.66,546.25,176.36,539.94,183.86,535.61Z"/><path class="cls-12" d="M185.83,537.18l17.64-9.44c4-2.32,31.57-14.66,35.05-12.65l11.16-1.67c3.44-2,14,.54,18.4.54,3.81,0,12.41,3.81,15.13,5.38l78.58,45,16.72,9.56,95.3,54.52c2.09,1.21,6.78,4.85,7.95,6.59a16.83,16.83,0,0,1,3,6.25c1.06,6-2.42,12.14-9.79,16.39l-17.63,9.44c-4,2.32-31.58,14.66-35,12.65l-11.16,1.67c-3.45,2-14-.54-18.4-.54-3.81,0-12.41-3.81-15.14-5.38L299,630.5l-16.72-9.57L187,566.41c-2.1-1.21-6.78-4.85-7.95-6.59a16.76,16.76,0,0,1-3-6.25C175,547.58,178.46,541.43,185.83,537.18Z"/><path class="cls-13" d="M187.8,538.74l17.1-9c4.82-2.78,30-13.15,34.19-10.74l10.78-.54c2.87-1.65,14,1.78,17.64,1.78,3.17,0,12.22,4.26,14.49,5.58l76,43.51,16.16,9.26,92.13,52.77c1.74,1,6.82,4.77,7.83,6.19,1.41,2,2.73,3.76,3.21,5.87,1.28,5.7-2,11.69-9.22,15.87l-17.1,9c-4.82,2.79-30,13.16-34.18,10.75l-10.79.53c-2.87,1.66-14-1.78-17.63-1.78-3.17,0-12.23-4.26-14.5-5.57l-76-43.51-16.16-9.26-92.13-52.77c-1.75-1-6.83-4.77-7.84-6.19-1.4-2-2.73-3.76-3.2-5.87C177.31,548.91,180.57,542.92,187.8,538.74Z"/><path class="cls-14" d="M189.77,540.31l16.57-8.64c5.62-3.25,28.45-11.66,33.32-8.85l10.4.6c2.3-1.32,13.95,3,16.87,3,2.54,0,12.05,4.72,13.86,5.77l73.35,42.07,15.61,9,88.95,51c1.4.81,6.89,4.68,7.73,5.8,1.43,1.9,2.85,3.5,3.4,5.48,1.51,5.42-1.54,11.26-8.64,15.36l-16.56,8.64c-5.63,3.25-28.45,11.66-33.32,8.85l-10.41-.6c-2.29,1.32-13.95-3-16.87-3-2.53,0-12-4.72-13.86-5.77l-73.35-42.07L281.22,618l-89-51c-1.4-.81-6.88-4.68-7.72-5.8-1.44-1.9-2.86-3.5-3.41-5.48C179.63,550.25,182.67,544.41,189.77,540.31Z"/><path class="cls-15" d="M191.74,541.87l16-8.24c6.43-3.71,26.89-10.16,32.45-6.94l10,1.73c1.72-1,13.92,4.26,16.11,4.26,1.9,0,11.86,5.17,13.23,6l70.73,40.63,15.05,8.64,85.78,49.28c1.05.6,7.13,4.47,7.61,5.39a11.66,11.66,0,0,1,3.61,5.11c1.73,5.13-1.1,10.82-8.07,14.84l-16,8.24c-6.42,3.71-26.89,10.16-32.45,6.94l-10-1.73c-1.72,1-13.92-4.26-16.11-4.26-1.9,0-11.86-5.17-13.22-6l-70.74-40.63-15-8.64-85.79-49.28c-1-.6-7.13-4.46-7.61-5.39a11.6,11.6,0,0,1-3.61-5.11C181.94,551.58,184.78,545.9,191.74,541.87Z"/><path class="cls-16" d="M193.71,543.44l15.49-7.84c7.23-4.18,25.33-8.66,31.59-5.05l9.65,2.87c1.15-.66,13.88,5.5,15.34,5.5,1.27,0,11.69,5.63,12.6,6.15l68.12,39.19L361,592.6l82.61,47.53c.7.4,7.18,4.37,7.5,5a11.16,11.16,0,0,1,3.8,4.73c2,4.84-.66,10.37-7.49,14.32L431.92,672c-7.23,4.18-25.33,8.66-31.59,5l-9.65-2.87c-1.15.67-13.88-5.49-15.34-5.49-1.27,0-11.69-5.63-12.6-6.15l-68.12-39.2L280.13,615l-82.61-47.53c-.69-.4-7.18-4.38-7.5-5a11.13,11.13,0,0,1-3.8-4.72C184.25,552.92,186.88,547.39,193.71,543.44Z"/><path class="cls-17" d="M195.68,545l14.95-7.45c8-4.64,23.77-7.16,30.73-3.14l9.27,4c.58-.33,13.85,6.74,14.58,6.74s11.5,6.08,12,6.34l65.5,37.75,13.93,8L436,643.06c.35.2,7.23,4.29,7.39,4.6a11.07,11.07,0,0,1,4,4.35c2.19,4.55-.23,9.93-6.92,13.79l-14.95,7.45c-8,4.64-23.77,7.16-30.73,3.14l-9.28-4c-.57.33-13.84-6.74-14.57-6.74s-11.5-6.08-12-6.34l-65.5-37.75-13.94-8-79.44-45.78c-.34-.2-7.22-4.29-7.38-4.6a11.07,11.07,0,0,1-4-4.35C186.56,554.25,189,548.87,195.68,545Z"/><path d="M389.35,675.73l-96.92-56-96.92-56c-7.66-4.42-6.7-12.14,2.14-17.24l14.41-7.05c8.84-5.1,22.21-5.65,29.87-1.23l96.92,56,96.92,56c7.65,4.42,6.69,12.14-2.15,17.24l-14.41,7C410.37,679.59,397,680.15,389.35,675.73Z"/></g><g class="cls-18"><path class="cls-7" d="M163.49,553.34a17.15,17.15,0,0,1-8.59-2.08l-75-44.92-75-44.93A9.1,9.1,0,0,1,0,453.56c0-3.49,2.16-6.74,5.94-8.92l16.19-8.42a21.06,21.06,0,0,1,10.44-2.66,17.28,17.28,0,0,1,8.59,2.07l75,44.93,75,44.92a9.11,9.11,0,0,1,4.93,7.86c0,3.49-2.17,6.73-5.94,8.91l-16.19,8.43A21.2,21.2,0,0,1,163.49,553.34Z"/><path class="cls-8" d="M8.06,445.74l2.34-1.21c.09-.06,4.47-2.26,4.55-2.22l8.89-4c2.69-1.55,6.66-2.05,10.09-2.05a17.61,17.61,0,0,1,8.3,2.18L109.9,479l5.35,3.21,73,43.72c2.84,1.64,5,4.57,5,7.46a9.13,9.13,0,0,1-2.26,6.28,11.35,11.35,0,0,1-2.75,2.26L186,543.1c-.1,0-4.47,2.26-4.55,2.21l-8.89,4c-2.7,1.56-6.67,2.06-10.09,2.06a17.77,17.77,0,0,1-8.31-2.18L86.45,508.66l-5.35-3.2-73-43.72c-2.85-1.65-5-4.57-5-7.46A9.17,9.17,0,0,1,5.32,448,11.5,11.5,0,0,1,8.06,445.74Z"/><path class="cls-9" d="M10.19,446.83l2.27-1.17a42.4,42.4,0,0,1,4.46-2l8.63-3.22C28,439,32.21,439,35.29,439a18.39,18.39,0,0,1,8,2.29l65.85,39.4,5.2,3.11,71.07,42.52c2.56,1.48,5.11,4.47,5.11,7.07,0,2-.19,4.22-1.58,5.93a8.9,8.9,0,0,1-2.49,2.23l-2.28,1.18a46.79,46.79,0,0,1-4.45,2l-8.63,3.21c-2.43,1.4-6.66,1.46-9.74,1.46a18.38,18.38,0,0,1-8-2.28L87.5,507.7l-5.2-3.12L11.23,462.06c-2.56-1.48-5.11-4.46-5.11-7.07,0-2,.18-4.21,1.57-5.92A9,9,0,0,1,10.19,446.83Z"/><path class="cls-10" d="M12.32,447.92l2.21-1.14c.29-.16,4.11-1.94,4.36-1.8l8.37-2.44c2.15-1.25,6.65-.86,9.39-.86a19.22,19.22,0,0,1,7.73,2.39l64,38.28,5.06,3,69.11,41.32c2.27,1.31,5.2,4.36,5.2,6.67,0,1.76.23,4-.89,5.57a6.89,6.89,0,0,1-2.25,2.22l-2.21,1.14c-.29.16-4.11,1.94-4.36,1.8l-8.37,2.44c-2.15,1.25-6.65.86-9.39.86a19.32,19.32,0,0,1-7.74-2.39l-64-38.28-5.05-3L14.38,462.38c-2.28-1.31-5.2-4.35-5.2-6.67,0-1.76-.24-4,.89-5.57A6.89,6.89,0,0,1,12.32,447.92Z"/><path class="cls-11" d="M14.44,449l2.16-1.1c.38-.22,3.92-1.78,4.26-1.59l8.1-1.68c1.89-1.08,6.65-.26,9-.26,2.08,0,6,1.64,7.45,2.5l62.21,37.17,4.91,2.93,67.14,40.12c2,1.16,5.3,4.26,5.3,6.28,0,1.54,1,4-.21,5.22a4.07,4.07,0,0,1-2,2.2l-2.15,1.1c-.38.22-3.93,1.78-4.26,1.59l-8.11,1.68c-1.88,1.08-6.65.26-9,.26-2.09,0-6-1.64-7.45-2.5L89.59,505.76l-4.91-2.93L17.53,462.71c-2-1.16-5.29-4.26-5.29-6.28,0-1.54-1-4,.2-5.22A4.07,4.07,0,0,1,14.44,449Z"/><path class="cls-12" d="M16.57,450.11,18.66,449c.48-.28,3.75-1.63,4.17-1.39l7.84-.9c1.62-.93,6.65.34,8.7.34,1.79,0,5.89,1.86,7.17,2.6l60.39,36.06,4.76,2.84,65.18,38.92c1.71,1,5.39,4.15,5.39,5.88,0,1.32,1.51,3.82.48,4.86a3.08,3.08,0,0,1-1.75,2.18l-2.09,1.07c-.49.27-3.75,1.62-4.17,1.38l-7.85.91c-1.61.93-6.64-.34-8.69-.34-1.79,0-5.89-1.86-7.17-2.6L90.63,504.79,85.87,502,20.68,463c-1.71-1-5.38-4.15-5.38-5.88,0-1.33-1.52-3.82-.48-4.86A3.08,3.08,0,0,1,16.57,450.11Z"/><path class="cls-13" d="M18.7,451.2l2-1c.58-.33,3.56-1.47,4.07-1.18l7.58-.13c1.35-.78,6.64.93,8.35.93,1.49,0,5.81,2.09,6.88,2.71l58.57,34.94,4.62,2.76L174,527.91c1.43.83,5.48,4.05,5.48,5.49,0,1.1,2,3.64,1.16,4.51.12.67-.4,1.52-1.5,2.16l-2,1c-.58.33-3.57,1.47-4.07,1.18l-7.58.13c-1.35.77-6.64-.94-8.35-.94-1.49,0-5.82-2.09-6.88-2.7L91.67,503.82l-4.61-2.75L23.83,463.35c-1.42-.82-5.47-4-5.47-5.49,0-1.1-2-3.63-1.16-4.5C17.08,452.69,17.59,451.83,18.7,451.2Z"/><path class="cls-14" d="M20.82,452.29l2-1c.68-.39,3.39-1.31,4-1l7.33.65c1.08-.63,6.63,1.53,8,1.53,1.19,0,5.74,2.32,6.6,2.81l56.75,33.83,4.47,2.66,61.26,36.52c1.14.66,5.57,3.94,5.57,5.09,0,.88,2.54,3.45,1.85,4.15.28.64-.16,1.51-1.26,2.14l-2,1c-.67.39-3.38,1.32-4,1l-7.32-.64c-1.08.62-6.63-1.53-8-1.53-1.2,0-5.75-2.32-6.6-2.82L92.72,502.86l-4.47-2.67L27,463.68c-1.14-.66-5.56-3.94-5.56-5.1,0-.88-2.54-3.45-1.85-4.15C19.29,453.79,19.73,452.92,20.82,452.29Z"/><path class="cls-15" d="M23,453.38l1.91-.95c.77-.45,3.21-1.16,3.87-.77l7.07,1.41c.81-.46,6.63,2.13,7.65,2.13s5.67,2.55,6.31,2.92l54.94,32.71,4.32,2.58,59.3,35.31c.86.5,5.66,3.84,5.66,4.7,0,.67,3.05,3.27,2.53,3.79.44.62.08,1.5-1,2.13l-1.91.95c-.77.45-3.21,1.16-3.88.77l-7.06-1.41c-.81.47-6.63-2.13-7.66-2.13s-5.66-2.55-6.3-2.92L93.76,501.89l-4.32-2.58L30.13,464c-.85-.49-5.65-3.84-5.65-4.7,0-.66-3.05-3.27-2.53-3.79C21.51,454.89,21.86,454,23,453.38Z"/><path class="cls-16" d="M25.08,454.47l1.85-.91c.86-.5,3-1,3.77-.57l6.81,2.19c.54-.31,6.62,2.73,7.3,2.73s5.6,2.78,6,3L104,492.53l4.18,2.48,57.34,34.12c.57.33,5.75,3.73,5.75,4.31s3.56,3.08,3.22,3.43c.6.59.32,1.48-.76,2.11l-1.85.91c-.87.5-3,1-3.77.56l-6.81-2.18c-.54.31-6.62-2.73-7.31-2.73s-5.59-2.78-6-3l-53.11-31.6-4.18-2.48L33.28,464.32c-.57-.33-5.74-3.73-5.74-4.31s-3.56-3.08-3.22-3.43C23.72,456,24,455.1,25.08,454.47Z"/><path class="cls-17" d="M27.2,455.57l1.79-.88a4.64,4.64,0,0,1,3.68-.36l6.55,3c.26-.16,6.61,3.32,7,3.32s5.53,3,5.74,3.13l51.3,30.49,4,2.39,55.38,32.91c.29.17,5.84,3.63,5.84,3.92s4.07,2.9,3.9,3.07c.76.56.56,1.47-.5,2.09l-1.79.88a4.64,4.64,0,0,1-3.68.36l-6.55-3c-.27.16-6.61-3.33-7-3.33s-5.52-3-5.73-3.13L95.85,500l-4-2.39L36.43,464.64c-.28-.16-5.83-3.62-5.83-3.91s-4.08-2.9-3.9-3.08C25.94,457.1,26.13,456.18,27.2,455.57Z"/><path d="M164.72,539.24,96.89,499,29.07,458.73c-.92-.53-.8-1.46.26-2.07l1.73-.85a4,4,0,0,1,3.58-.14l67.82,40.25,67.83,40.26c.91.53.8,1.45-.26,2.07l-1.73.84A4,4,0,0,1,164.72,539.24Z"/></g><path class="cls-19" d="M243.54,339.9,36.05,220.1c-7.3-4.21-13.21-15.52-13.21-25.25V60.75c0-9.73,5.91-14.2,13.21-10L243.54,170.55c7.3,4.22,13.22,15.52,13.22,25.25V329.9C256.76,339.64,250.84,344.11,243.54,339.9Z"/><path class="cls-20" d="M241,340.66,33.51,220.87c-7.3-4.22-13.22-15.52-13.22-25.26,0,0,5.92-148.3,13.22-144.09L241,171.32c7.3,4.21,13.21,15.52,13.21,25.25v134.1C254.21,340.4,248.3,344.87,241,340.66Z"/><path class="cls-21" d="M245.46,343.24,34.76,221.59c-7.41-4.28-7.41-176.24,0-172l210.7,121.64c7.41,4.28,13.42,15.76,13.42,25.64V333.09C258.88,343,252.87,347.52,245.46,343.24Z"/><path class="cls-22" d="M241,171.32,33.51,51.52c-5.56-3.21-10.31-1.37-12.26,4,2.19-4.42,6.63-5.76,11.75-2.8L240.49,172.5c7.3,4.22,13.21,15.52,13.21,25.26v134.1a17.56,17.56,0,0,1-.95,6,16.17,16.17,0,0,0,1.46-7.19V196.57C254.21,186.84,248.3,175.53,241,171.32Z"/><path class="cls-23" d="M226.9,298.9c0,9.64-6.8,13.52-15.2,8.67S196.5,291,196.5,281.36s6.81-13.52,15.2-8.67S226.9,289.27,226.9,298.9Z"/><path class="cls-24" d="M246.06,310c0,9.63-6.8,13.51-15.2,8.66s-15.19-16.58-15.19-26.21,6.8-13.51,15.19-8.67S246.06,300.34,246.06,310Z"/><g class="cls-25"><path class="cls-26" d="M43.34,151.74l2.73,1.58a2.77,2.77,0,0,1,1.18,1.25,3.58,3.58,0,0,1,.46,2v4.35a1.85,1.85,0,0,1-.35,1.38c-.37.39-.76.25-1.29-.06l-3.3-1.9a3.64,3.64,0,0,1-1-.93l-.57-.67a2.49,2.49,0,0,1-.84-1.63c0-.52.32-.82.71-.6a1.6,1.6,0,0,1,.47.44l.45.52a5.49,5.49,0,0,0,.78.86l3.43,2v-4.86l-4.37-2.52V144L47,147a1.59,1.59,0,0,1,.74,1.44c0,.73-.35.81-.74.59l-3.63-2.1Z"/><path class="cls-27" d="M52.55,152.21c0,.44-.27.86-.74.59a1.85,1.85,0,0,1-.75-1.45v-1c0-.45.27-.86.75-.59l6.58,3.8v5.89c0,.71,0,.8-.4,1.05l-2.08,1.25c-.38.25-.41.27-.41,1v3.94c0,.65-.21.9-.74.59a1.5,1.5,0,0,1-.74-1.44v-4.9c0-.67,0-.72.38-.95l2.05-1.24c.49-.3.46-.3.46-1.19v-2.8Z"/><path class="cls-28" d="M63.23,170.11l5.1,2.94a1.63,1.63,0,0,1,.74,1.45c0,.73-.36.81-.74.58l-6.59-3.8v-6.62c0-1.52.57-2,1.68-1.32l4.16,2.4v-4.85L62.48,158a1.65,1.65,0,0,1-.74-1.45c0-.73.36-.81.74-.59l4.93,2.85a2.83,2.83,0,0,1,1.2,1.26,3.89,3.89,0,0,1,.46,2.07v4.16c0,.73,0,1.26-.46,1.54s-.71.16-1.2-.12l-4.18-2.41Z"/><path class="cls-29" d="M75.37,170.24l2.73,1.57a2.87,2.87,0,0,1,1.19,1.26,3.63,3.63,0,0,1,.45,2v4.34a1.85,1.85,0,0,1-.35,1.38c-.37.39-.76.25-1.29-.06l-3.29-1.9a3.52,3.52,0,0,1-1-.93l-.56-.67a2.48,2.48,0,0,1-.85-1.62c0-.53.33-.83.71-.61a1.94,1.94,0,0,1,.48.44l.44.52a5.08,5.08,0,0,0,.79.86l3.42,2v-4.85l-4.37-2.53V162.5L79,165.45a1.6,1.6,0,0,1,.74,1.45c0,.73-.35.81-.74.58l-3.63-2.09Z"/><path class="cls-30" d="M95.26,176.87c0,.44-.27.86-.74.58a1.82,1.82,0,0,1-.75-1.44v-1c0-.44.27-.86.75-.58l6.58,3.8v5.89c0,.71,0,.8-.4,1l-2.08,1.26c-.38.25-.41.27-.41,1v3.94c0,.65-.21.89-.74.59a1.52,1.52,0,0,1-.75-1.45v-4.89c0-.67,0-.72.39-.95l2-1.24c.49-.31.46-.3.46-1.19v-2.81Z"/><path class="cls-31" d="M105.93,194.77l5.11,2.94a1.61,1.61,0,0,1,.74,1.44c0,.73-.36.81-.74.59l-6.59-3.8v-6.62c0-1.52.56-2,1.68-1.33l4.16,2.41v-4.85l-5.1-3a1.61,1.61,0,0,1-.74-1.44c0-.73.36-.81.74-.59l4.93,2.85a2.83,2.83,0,0,1,1.2,1.26,3.89,3.89,0,0,1,.46,2.07v4.16c0,.73,0,1.26-.46,1.54s-.71.16-1.2-.12l-4.19-2.42Z"/><path class="cls-32" d="M115.87,188.77a1.62,1.62,0,0,1-.74-1.45c0-.73.36-.81.74-.58l5.1,2.94a3.5,3.5,0,0,1,1.48,2.89v3.9c0,.81-.11,1.33-.57,1.63a4.35,4.35,0,0,1,.57,2.31v3.89c0,1.16-.63,1.67-1.48,1.18l-5.1-2.95a1.61,1.61,0,0,1-.74-1.44c0-.73.36-.81.74-.59l5.1,2.95v-3.37c0-1.14-.32-1.67-.74-1.91l-2.91-1.68a1.61,1.61,0,0,1-.74-1.44c0-.73.36-.81.74-.59l2.91,1.68c.42.24.74.08.74-1.06v-3.37Z"/><path class="cls-33" d="M131.65,195.85a3.61,3.61,0,0,1,1.48,2.88v11.74c0,1.13-.64,1.66-1.48,1.17l-4.36-2.51a3.56,3.56,0,0,1-1.48-2.89V194.5c0-1.11.66-1.64,1.48-1.17Zm0,13.76V197.88l-4.36-2.52V207.1Z"/><path class="cls-34" d="M148.64,207.69c0,.45-.26.86-.74.59a1.87,1.87,0,0,1-.74-1.45v-1c0-.45.27-.86.74-.59l6.59,3.8v5.89c0,.71,0,.8-.4,1.05L152,217.23c-.39.24-.41.26-.41,1v3.94c0,.65-.21.9-.75.59a1.51,1.51,0,0,1-.74-1.44v-4.9c0-.67,0-.72.39-.95l2-1.23c.49-.31.46-.31.46-1.2v-2.8Z"/><path class="cls-35" d="M159.32,213.85c0,.45-.26.87-.74.59a1.85,1.85,0,0,1-.74-1.44v-1c0-.44.27-.86.74-.58l6.58,3.8v5.89c0,.71,0,.79-.4,1l-2.07,1.26c-.39.25-.42.27-.42,1v3.94c0,.65-.21.89-.74.58a1.5,1.5,0,0,1-.74-1.44v-4.89c0-.67,0-.72.39-1l2-1.23c.49-.31.46-.3.46-1.2v-2.8Z"/><path class="cls-36" d="M170,220c0,.45-.27.86-.74.59a1.84,1.84,0,0,1-.74-1.45v-1c0-.45.26-.86.74-.59l6.58,3.8v5.89c0,.71,0,.8-.4,1.05l-2.07,1.26c-.39.24-.42.26-.42,1v3.94c0,.65-.21.9-.74.59a1.49,1.49,0,0,1-.74-1.44v-4.9c0-.67,0-.72.38-.95l2.05-1.24c.49-.3.46-.3.46-1.19v-2.8Z"/><path class="cls-37" d="M180.68,226.18c0,.45-.27.87-.74.59a1.84,1.84,0,0,1-.75-1.44v-1c0-.44.27-.86.75-.58l6.58,3.8v5.88c0,.71,0,.8-.4,1.05L184,235.72c-.38.24-.41.27-.41,1v3.94c0,.65-.21.89-.74.58a1.49,1.49,0,0,1-.75-1.44v-4.89c0-.67,0-.72.39-1l2.05-1.23c.49-.31.46-.3.46-1.2v-2.8Z"/><path class="cls-38" d="M206.39,239a3.61,3.61,0,0,1,1.48,2.89v11.73c0,1.14-.63,1.66-1.48,1.17L202,252.28a3.56,3.56,0,0,1-1.48-2.89V237.66c0-1.12.67-1.65,1.48-1.18Zm0,13.76V241L202,238.51v11.74Z"/><path class="cls-39" d="M217.07,245.16a3.63,3.63,0,0,1,1.48,2.89v11.74c0,1.13-.64,1.66-1.48,1.17l-4.36-2.52a3.52,3.52,0,0,1-1.48-2.88V243.82c0-1.11.66-1.64,1.48-1.17Zm0,13.77V247.2l-4.36-2.52v11.73Z"/><path class="cls-40" d="M227.75,251.33a3.64,3.64,0,0,1,1.48,2.89V266c0,1.14-.64,1.66-1.48,1.17l-4.36-2.51a3.54,3.54,0,0,1-1.49-2.89V250c0-1.12.67-1.65,1.49-1.18Zm0,13.76V253.36l-4.36-2.52v11.74Z"/><path class="cls-41" d="M238.42,257.49a3.62,3.62,0,0,1,1.49,2.89v11.73c0,1.14-.64,1.67-1.49,1.18l-4.36-2.52a3.55,3.55,0,0,1-1.48-2.88V256.15c0-1.12.67-1.64,1.48-1.17Zm0,13.77V259.52L234.06,257v11.73Z"/></g><path class="cls-42" d="M42.54,151.8l2.73,1.58a2.84,2.84,0,0,1,1.19,1.25,3.65,3.65,0,0,1,.45,2V161a1.85,1.85,0,0,1-.35,1.38c-.37.39-.76.25-1.29-.06L42,160.39a3.52,3.52,0,0,1-1-.93l-.56-.67a2.53,2.53,0,0,1-.85-1.63c0-.52.33-.82.71-.6a1.76,1.76,0,0,1,.48.44l.44.52a5.08,5.08,0,0,0,.79.86l3.42,2V155.5L41.06,153v-8.92l5.11,3a1.59,1.59,0,0,1,.74,1.44c0,.73-.35.81-.74.59L42.54,147Z"/><path class="cls-42" d="M51.75,152.27c0,.44-.27.86-.74.58a1.81,1.81,0,0,1-.74-1.44v-1c0-.45.26-.86.74-.59l6.58,3.8v5.89c0,.71,0,.8-.4,1.05l-2.07,1.25c-.39.25-.42.27-.42,1v3.94c0,.65-.21.9-.74.59a1.53,1.53,0,0,1-.74-1.45V161c0-.67,0-.72.38-.95l2-1.24c.49-.3.46-.3.46-1.19v-2.8Z"/><path class="cls-42" d="M62.43,170.17l5.1,2.94a1.61,1.61,0,0,1,.74,1.44c0,.74-.36.81-.74.59l-6.59-3.8v-6.62c0-1.52.57-2,1.68-1.32l4.17,2.4V161L61.69,158a1.6,1.6,0,0,1-.75-1.44c0-.73.36-.81.75-.59l4.92,2.85a2.83,2.83,0,0,1,1.2,1.26,3.8,3.8,0,0,1,.46,2.07v4.16c0,.73,0,1.26-.46,1.54s-.71.16-1.2-.12l-4.18-2.42Z"/><path class="cls-42" d="M74.57,170.3l2.73,1.57a2.81,2.81,0,0,1,1.19,1.26,3.65,3.65,0,0,1,.46,2v4.34a1.85,1.85,0,0,1-.36,1.38c-.37.39-.75.25-1.29-.06L74,178.88a3.52,3.52,0,0,1-1-.93l-.56-.67a2.48,2.48,0,0,1-.85-1.62c0-.53.33-.83.71-.61a1.78,1.78,0,0,1,.48.44l.44.52a5.08,5.08,0,0,0,.79.86l3.43,2V174l-4.38-2.53v-8.91l5.12,2.95A1.61,1.61,0,0,1,79,167c0,.74-.36.82-.74.59l-3.64-2.1Z"/><path class="cls-42" d="M94.46,176.93c0,.44-.27.86-.74.58a1.81,1.81,0,0,1-.74-1.44v-1c0-.44.26-.86.74-.58l6.58,3.8v5.89c0,.71,0,.8-.4,1l-2.07,1.26c-.39.25-.42.27-.42,1v3.94c0,.65-.21.89-.74.59a1.53,1.53,0,0,1-.74-1.45v-4.89c0-.67,0-.72.38-.95l2-1.24c.49-.31.46-.3.46-1.2v-2.8Z"/><path class="cls-42" d="M105.14,194.83l5.1,2.94a1.61,1.61,0,0,1,.74,1.44c0,.73-.36.81-.74.59l-6.59-3.8v-6.62c0-1.52.57-2,1.68-1.33l4.17,2.41v-4.85l-5.1-3a1.6,1.6,0,0,1-.75-1.44c0-.73.36-.81.75-.59l4.92,2.84a2.91,2.91,0,0,1,1.2,1.27,3.78,3.78,0,0,1,.46,2.07V191c0,.73,0,1.25-.46,1.54s-.71.16-1.2-.12L105.14,190Z"/><path class="cls-42" d="M115.07,188.83a1.65,1.65,0,0,1-.74-1.45c0-.73.36-.81.74-.58l5.1,2.94a3.51,3.51,0,0,1,1.49,2.89v3.9c0,.81-.12,1.33-.58,1.63a4.36,4.36,0,0,1,.58,2.31v3.89c0,1.16-.64,1.66-1.49,1.18l-5.1-2.95a1.61,1.61,0,0,1-.74-1.44c0-.73.36-.81.74-.59l5.1,2.95v-3.37c0-1.14-.32-1.67-.74-1.91l-2.9-1.68a1.61,1.61,0,0,1-.75-1.45c0-.73.36-.8.75-.58l2.9,1.68c.42.24.74.08.74-1.06v-3.37Z"/><path class="cls-42" d="M130.85,195.91a3.61,3.61,0,0,1,1.48,2.88v11.74c0,1.13-.63,1.66-1.48,1.17l-4.36-2.52A3.54,3.54,0,0,1,125,206.3V194.56c0-1.11.67-1.64,1.48-1.17Zm0,13.76V197.94l-4.36-2.52v11.73Z"/><path class="cls-42" d="M147.85,207.75c0,.45-.27.86-.74.59a1.85,1.85,0,0,1-.75-1.45v-1c0-.45.27-.86.75-.59l6.58,3.8V215c0,.71,0,.8-.4,1.05l-2.08,1.26c-.38.24-.41.26-.41,1v3.94c0,.65-.21.9-.74.59a1.5,1.5,0,0,1-.75-1.44v-4.9c0-.67,0-.72.39-.95l2.05-1.24c.49-.3.46-.3.46-1.19v-2.8Z"/><path class="cls-42" d="M158.52,213.91c0,.45-.26.87-.74.59a1.85,1.85,0,0,1-.74-1.44v-1c0-.44.27-.86.74-.58l6.59,3.8v5.88c0,.71,0,.8-.4,1.05l-2.08,1.26c-.38.24-.41.27-.41,1v3.94c0,.65-.21.89-.75.58a1.5,1.5,0,0,1-.74-1.44v-4.89c0-.67,0-.72.39-1l2-1.23c.49-.31.46-.3.46-1.2v-2.8Z"/><path class="cls-42" d="M169.2,220.08c0,.45-.26.86-.74.59a1.87,1.87,0,0,1-.74-1.45v-1c0-.45.27-.86.74-.59l6.58,3.8v5.89c0,.71,0,.8-.4,1.05l-2.07,1.25c-.39.25-.42.27-.42,1v3.94c0,.65-.2.9-.74.59a1.51,1.51,0,0,1-.74-1.44v-4.9c0-.67,0-.72.39-.95l2-1.24c.49-.3.46-.3.46-1.19v-2.8Z"/><path class="cls-42" d="M179.88,226.24c0,.45-.27.86-.74.59a1.82,1.82,0,0,1-.74-1.44v-1c0-.45.26-.86.74-.59l6.58,3.81v5.88c0,.71,0,.8-.4,1.05l-2.07,1.26c-.39.24-.42.27-.42,1v3.94c0,.65-.21.89-.74.58a1.51,1.51,0,0,1-.74-1.44V235c0-.67,0-.72.38-1l2.05-1.23c.49-.31.46-.3.46-1.2v-2.8Z"/><path class="cls-42" d="M205.59,239.06a3.62,3.62,0,0,1,1.49,2.89v11.73c0,1.14-.64,1.66-1.49,1.17l-4.35-2.51a3.54,3.54,0,0,1-1.49-2.89V237.72c0-1.12.67-1.65,1.49-1.18Zm0,13.76V241.09l-4.35-2.52v11.74Z"/><path class="cls-42" d="M216.27,245.22a3.61,3.61,0,0,1,1.48,2.89v11.73c0,1.14-.63,1.67-1.48,1.18l-4.36-2.52a3.55,3.55,0,0,1-1.48-2.88V243.88c0-1.12.67-1.64,1.48-1.17Zm0,13.77V247.25l-4.36-2.51v11.73Z"/><path class="cls-42" d="M227,251.39a3.63,3.63,0,0,1,1.48,2.88V266c0,1.14-.64,1.66-1.48,1.17l-4.36-2.51a3.53,3.53,0,0,1-1.48-2.89V250.05c0-1.12.66-1.65,1.48-1.18Zm0,13.76V253.42l-4.36-2.52v11.74Z"/><path class="cls-42" d="M237.63,257.55a3.64,3.64,0,0,1,1.48,2.89v11.73c0,1.14-.64,1.67-1.48,1.18l-4.36-2.52a3.54,3.54,0,0,1-1.49-2.89V256.21c0-1.12.67-1.65,1.49-1.17Zm0,13.77V259.58l-4.36-2.51V268.8Z"/><polygon class="cls-43" points="70.95 143.57 70.95 135.82 40.56 118.28 40.56 126.03 70.95 143.57"/><path class="cls-44" d="M71,134v-.42a14.09,14.09,0,0,0-6.38-11L46.94,112.36c-3.52-2-6.38-.41-6.38,3.64v.42Z"/><path class="cls-45" d="M40.56,127.88v.25a14.09,14.09,0,0,0,6.38,11l17.63,10.17c3.52,2,6.38.41,6.38-3.64v-.25Z"/><g class="cls-25"><path class="cls-46" d="M40.56,128.13c0,.29,0,.59.07.89l29.31,16.92v.25a4.6,4.6,0,0,1-1.58,3.86c1.57-.43,2.59-2,2.59-4.37v-.25L40.56,127.88Z"/><polygon class="cls-47" points="40.56 119.37 69.94 136.33 69.94 142.99 70.95 143.57 70.95 135.82 40.56 118.28 40.56 119.37"/><path class="cls-48" d="M64.57,122.53,46.94,112.36c-1.93-1.12-3.64-1.1-4.81-.22a4.94,4.94,0,0,1,3.8.73L63.55,123a14.22,14.22,0,0,1,6.33,10.31L71,134v-.42A14.09,14.09,0,0,0,64.57,122.53Z"/></g><path class="cls-42" d="M43.25,194.89V189.5l.93.54v5.47q0,2.84-2.16,1.59a4.32,4.32,0,0,1-1-.76l.13-.79a3.57,3.57,0,0,0,.78.61c.44.25.76.29,1,.12S43.25,195.65,43.25,194.89Z"/><path class="cls-42" d="M47.85,194.34a4.7,4.7,0,0,1,1.78,1.86,5.29,5.29,0,0,1,.68,2.57c0,1-.25,1.64-.76,1.88a1.9,1.9,0,0,1-1.79-.23A4.82,4.82,0,0,1,46,198.57a5.14,5.14,0,0,1-.7-2.59c0-.95.24-1.56.73-1.85A1.76,1.76,0,0,1,47.85,194.34ZM49,196.48a2.69,2.69,0,0,0-1.14-1.35q-.77-.45-1.17,0a2,2,0,0,0-.4,1.36,4.24,4.24,0,0,0,.44,1.87,2.83,2.83,0,0,0,1.11,1.28.88.88,0,0,0,1.11,0,1.79,1.79,0,0,0,.44-1.37A4.51,4.51,0,0,0,49,196.48Z"/><path class="cls-42" d="M51.49,202.43v-8.61l.93.54V198h0a.84.84,0,0,1,.66-.38,1.74,1.74,0,0,1,1,.26,3.88,3.88,0,0,1,.44.33,3,3,0,0,1,.48.51,3.48,3.48,0,0,1,.43.69,4.12,4.12,0,0,1,.31.9,4.88,4.88,0,0,1,.12,1.1V205l-.93-.54V201a3.46,3.46,0,0,0-.28-1.42,2.09,2.09,0,0,0-.9-1,.91.91,0,0,0-.77-.14.73.73,0,0,0-.48.47,1.48,1.48,0,0,0-.06.48V203Z"/><path class="cls-42" d="M57.35,205.82v-4.28c0-.63,0-1.17,0-1.62l.83.48,0,1h0a.88.88,0,0,1,.65-.4,1.67,1.67,0,0,1,1,.29,2.89,2.89,0,0,1,.59.45,4.9,4.9,0,0,1,.57.71,3.71,3.71,0,0,1,.47,1,4.82,4.82,0,0,1,.18,1.34v3.49l-.93-.53v-3.39a3.47,3.47,0,0,0-.29-1.42,2.13,2.13,0,0,0-.9-1,.93.93,0,0,0-.77-.13.78.78,0,0,0-.47.5,1.16,1.16,0,0,0-.07.47v3.53Z"/><path class="cls-42" d="M65.13,209.91l.25-.74A5.56,5.56,0,0,0,67,210.65a1.38,1.38,0,0,0,1.09.25c.26-.11.4-.37.4-.79A2.33,2.33,0,0,0,68.2,209a7,7,0,0,0-1-1.28,5.21,5.21,0,0,1-1.88-3.41c0-.65.22-1.06.64-1.23a2,2,0,0,1,1.67.34,5.35,5.35,0,0,1,1.56,1.3l-.25.72a4.85,4.85,0,0,0-1.34-1.17c-.45-.25-.78-.32-1-.21a.69.69,0,0,0-.34.66,2,2,0,0,0,.33,1.09,8.23,8.23,0,0,0,1.09,1.31A8.05,8.05,0,0,1,69,208.88a3.51,3.51,0,0,1,.44,1.68,1.33,1.33,0,0,1-.64,1.32c-.43.21-1,.08-1.85-.38a7.2,7.2,0,0,1-1-.74A5.68,5.68,0,0,1,65.13,209.91Z"/><path class="cls-42" d="M70.67,213.51v-4.28c0-.41,0-.95,0-1.62l.82.47,0,1h0c.37-.5.91-.55,1.62-.14a2.79,2.79,0,0,1,.89.83,4,4,0,0,1,.55,1.18h0a.94.94,0,0,1,.58-.43,1.49,1.49,0,0,1,1.12.23,2.77,2.77,0,0,1,.56.44,4.73,4.73,0,0,1,.54.7,3.58,3.58,0,0,1,.43,1,5.21,5.21,0,0,1,.16,1.35v3.44l-.91-.52V213.9a3.62,3.62,0,0,0-.28-1.5,1.94,1.94,0,0,0-.83-1,.78.78,0,0,0-.67-.12.71.71,0,0,0-.44.44,1.57,1.57,0,0,0-.07.49v3.62l-.91-.52v-3.52a3,3,0,0,0-.28-1.32,1.89,1.89,0,0,0-.79-.9.84.84,0,0,0-.72-.1.77.77,0,0,0-.43.51,1.1,1.1,0,0,0-.08.47V214Z"/><path class="cls-42" d="M79.54,210.63a.41.41,0,0,1,.42.05,1.13,1.13,0,0,1,.41.43,1.07,1.07,0,0,1,.16.57.39.39,0,0,1-.16.37c-.11.07-.25,0-.43-.06a1.1,1.1,0,0,1-.41-.42,1.18,1.18,0,0,1-.15-.56A.42.42,0,0,1,79.54,210.63Zm.88,8.51-.93-.54v-5.87l.93.54Z"/><path class="cls-42" d="M82.18,213.19l.91.21v1.4l1.33.77v.82l-1.33-.77v3.16a1.65,1.65,0,0,0,.69,1.55,2.2,2.2,0,0,0,.54.23l.05.84a2.55,2.55,0,0,1-.83-.33,2.61,2.61,0,0,1-1-1,3.66,3.66,0,0,1-.36-1.74v-3.21l-.8-.46v-.81l.8.46Z"/><path class="cls-42" d="M85.47,222.05v-8.61l.93.53v3.68h0a.82.82,0,0,1,.66-.38,1.74,1.74,0,0,1,1,.26,3,3,0,0,1,.44.33,3.43,3.43,0,0,1,.48.51,3.48,3.48,0,0,1,.43.69,3.78,3.78,0,0,1,.31.9,4.88,4.88,0,0,1,.12,1.1v3.5l-.93-.54v-3.38a3.49,3.49,0,0,0-.28-1.42,2.11,2.11,0,0,0-.9-1,1,1,0,0,0-.77-.15.76.76,0,0,0-.48.48,1.41,1.41,0,0,0-.06.47v3.55Z"/><g class="cls-49"><path class="cls-50" d="M145.66,152l.29,1.56a6.84,6.84,0,0,1-3.08-1.14,11.76,11.76,0,0,1-5.74-10.1c0-2.11.56-3.48,1.69-4.12s2.59-.44,4.4.6A10.44,10.44,0,0,1,146,141l-.38,1.19a9.14,9.14,0,0,0-2.34-1.91c-1.38-.8-2.49-.95-3.31-.45s-1.24,1.61-1.24,3.35a9.34,9.34,0,0,0,1.19,4.61,8.56,8.56,0,0,0,3.28,3.34A5.36,5.36,0,0,0,145.66,152Z"/><path class="cls-51" d="M147.75,155v-6.61c0-1.21,0-2.22-.07-3l1.33.77.07,2,.06,0a1.44,1.44,0,0,1,.91-1,1.72,1.72,0,0,1,1.42.24c.09,0,.23.15.42.28v1.65a4.28,4.28,0,0,0-.52-.34,1.32,1.32,0,0,0-1.34-.16,1.54,1.54,0,0,0-.7,1.2,4.46,4.46,0,0,0-.06.79v5.12Z"/><path class="cls-52" d="M160,157.58l-5.89-3.39a5.66,5.66,0,0,0,.82,3,5.88,5.88,0,0,0,2,2,5.77,5.77,0,0,0,2.32.84l.28,1.41a6.61,6.61,0,0,1-2.8-1,7.93,7.93,0,0,1-3-3.07,8.35,8.35,0,0,1-1.11-4.17,3.73,3.73,0,0,1,1.07-3.07c.72-.57,1.67-.51,2.86.18a6.17,6.17,0,0,1,1.68,1.42,6.43,6.43,0,0,1,1.08,1.78,9.8,9.8,0,0,1,.53,1.75,7.81,7.81,0,0,1,.17,1.55A4.87,4.87,0,0,1,160,157.58ZM154.1,153l4.45,2.56a5.49,5.49,0,0,0-.48-2.21,3.78,3.78,0,0,0-1.63-1.82q-1.06-.61-1.65-.09A2.32,2.32,0,0,0,154.1,153Z"/><path class="cls-53" d="M167.61,152.39l1.51.87v11.61q0,1.17.06,2.52l-1.34-.78-.07-1.7-.06,0a1.38,1.38,0,0,1-1.09.73,2.83,2.83,0,0,1-1.72-.48,6.76,6.76,0,0,1-2.57-2.84,8.65,8.65,0,0,1-1-4.12c0-1.55.35-2.59,1.08-3.1a2.33,2.33,0,0,1,2.67.13,5.72,5.72,0,0,1,1.57,1.32,6.13,6.13,0,0,1,1,1.59l0,0Zm0,10.06v-1.66a3.71,3.71,0,0,0-.07-.78,5,5,0,0,0-.77-1.87,4.24,4.24,0,0,0-1.43-1.4c-.77-.45-1.38-.45-1.83,0a3.08,3.08,0,0,0-.67,2.26,6.86,6.86,0,0,0,.64,2.92,4.65,4.65,0,0,0,1.83,2.07,1.68,1.68,0,0,0,1.4.24,1.33,1.33,0,0,0,.83-1A2.87,2.87,0,0,0,167.61,162.45Z"/><path class="cls-54" d="M171.74,155.79a.64.64,0,0,1,.68.07,1.74,1.74,0,0,1,.67.7,1.8,1.8,0,0,1,.26.93.66.66,0,0,1-.26.62c-.17.1-.4.07-.71-.11a1.69,1.69,0,0,1-.66-.69,1.81,1.81,0,0,1-.25-.91A.64.64,0,0,1,171.74,155.79Zm1.44,13.91-1.52-.88v-9.61l1.52.88Z"/><path class="cls-55" d="M176.05,160l1.49.35v2.3l2.18,1.26v1.33l-2.18-1.26v5.18a2.68,2.68,0,0,0,1.14,2.53,4,4,0,0,0,.88.39l.07,1.37a4.67,4.67,0,0,1-3-2.23,6,6,0,0,1-.59-2.86v-5.24l-1.29-.75V161l1.29.75Z"/><path class="cls-56" d="M193,179.33l.29,1.56a6.84,6.84,0,0,1-3.08-1.14,11.76,11.76,0,0,1-5.74-10.11c0-2.1.56-3.48,1.69-4.12s2.59-.44,4.4.61a10.63,10.63,0,0,1,2.77,2.19l-.38,1.19a9.11,9.11,0,0,0-2.34-1.9c-1.38-.8-2.49-1-3.31-.45s-1.24,1.61-1.24,3.34a9.41,9.41,0,0,0,1.19,4.62,8.67,8.67,0,0,0,3.27,3.34A5.63,5.63,0,0,0,193,179.33Z"/><path class="cls-57" d="M200.89,179.8v3.6a20.06,20.06,0,0,0,.12,2.37l-1.36-.79-.12-1.28-.06,0a1.48,1.48,0,0,1-1,.42,2.94,2.94,0,0,1-1.52-.47,5,5,0,0,1-1.88-1.9,4.77,4.77,0,0,1-.68-2.34c0-1.16.44-1.8,1.31-1.91a6.61,6.61,0,0,1,3.73,1.25v-.2a4.37,4.37,0,0,0-.06-.72,4.92,4.92,0,0,0-.24-.85,3.16,3.16,0,0,0-.59-.93,4.1,4.1,0,0,0-1-.8,3.24,3.24,0,0,0-2.2-.56l-.35-1.37a4.47,4.47,0,0,1,2.77.77,5.69,5.69,0,0,1,2.46,2.53A7.45,7.45,0,0,1,200.89,179.8Zm-1.47,1.82V180q-3.54-2.13-3.54.11a2.76,2.76,0,0,0,.4,1.48,2.82,2.82,0,0,0,1,1,1.67,1.67,0,0,0,1.31.29,1.07,1.07,0,0,0,.74-.71A1.57,1.57,0,0,0,199.42,181.62Z"/><path class="cls-58" d="M203.35,187.12v-6.61c0-1.21,0-2.22-.07-3l1.33.77.07,1.95,0,0a1.45,1.45,0,0,1,.92-1,1.72,1.72,0,0,1,1.42.24c.09,0,.23.15.41.28v1.65a3.37,3.37,0,0,0-.51-.34,1.34,1.34,0,0,0-1.35-.16,1.6,1.6,0,0,0-.7,1.2,5.83,5.83,0,0,0,0,.79V188Z"/><path class="cls-59" d="M214.54,179.49l1.51.87V192c0,.78,0,1.62.07,2.52l-1.35-.78L214.7,192l0,0a1.39,1.39,0,0,1-1.09.73,2.76,2.76,0,0,1-1.73-.47,6.76,6.76,0,0,1-2.57-2.84,8.71,8.71,0,0,1-1-4.12c0-1.56.35-2.59,1.08-3.11a2.35,2.35,0,0,1,2.67.14,5.72,5.72,0,0,1,1.57,1.32,5.92,5.92,0,0,1,1,1.58l0,0Zm0,10.06v-1.67a3.55,3.55,0,0,0-.07-.77,5,5,0,0,0-.77-1.88,4.18,4.18,0,0,0-1.42-1.39c-.78-.45-1.39-.46-1.84,0a3.07,3.07,0,0,0-.67,2.26,6.65,6.65,0,0,0,.65,2.91,4.47,4.47,0,0,0,1.82,2.07,1.68,1.68,0,0,0,1.4.24,1.29,1.29,0,0,0,.83-1A2.92,2.92,0,0,0,214.54,189.55Z"/></g><path class="cls-42" d="M125.87,245.38v-6.89l0,0-1.19.06-.18-.92,1.5-.06.79.46v7.89Z"/><path class="cls-42" d="M131.3,248.51v-6.89h0l-1.19,0-.18-.92,1.5-.05.79.45V249Z"/><path class="cls-42" d="M134.92,251.08l-.71-.41,2.94-7.1.73.42Z"/><path class="cls-42" d="M142.71,255.1l-4.38-2.53v-.66l.73-.39a8.93,8.93,0,0,0,2-1.27,1.81,1.81,0,0,0,.56-1.38,2.79,2.79,0,0,0-.31-1.29,2.58,2.58,0,0,0-1-1,1.64,1.64,0,0,0-1.46-.17l-.29-.93a2.21,2.21,0,0,1,1.93.32,4.06,4.06,0,0,1,1.57,1.59,3.93,3.93,0,0,1,.53,1.92,2.24,2.24,0,0,1-.56,1.61,6.66,6.66,0,0,1-1.8,1.25l-.54.28v0l3.07,1.78Z"/><path class="cls-42" d="M144.31,249.09c.44-.47,1-.49,1.74-.08a4.12,4.12,0,0,1,1.68,2,8.31,8.31,0,0,1,.6,3.28,4.29,4.29,0,0,1-.63,2.73c-.41.48-1,.5-1.76.06a4.1,4.1,0,0,1-1.65-2,8.44,8.44,0,0,1-.64-3.35A3.89,3.89,0,0,1,144.31,249.09Zm1.68.71a.66.66,0,0,0-1,.28,4.48,4.48,0,0,0-.39,2.2,7.8,7.8,0,0,0,.38,2.58,2.56,2.56,0,0,0,1,1.44.65.65,0,0,0,1-.26,5,5,0,0,0,.36-2.22,8.2,8.2,0,0,0-.35-2.56A2.48,2.48,0,0,0,146,249.8Z"/><path class="cls-60" d="M399.33,661.85,225.46,561.46C205.85,550.14,190,519.76,190,493.61v-463c0-13.29-10.93-16.23-4.31-21,.25-.18,15.52-7.12,15.81-7.23,7.13-2.73,14.75-3.95,24,1.4L399.33,104.11c19.62,11.33,35.51,41.7,35.51,67.85V635c0,13.9-4.48,23.8-11.63,28.34-.43.26-18.82,9-19.3,9.17C397.58,674.62,407.91,666.8,399.33,661.85Z"/><path class="cls-61" d="M397.73,104.65,223.86,4.26C214.6-1.08,388.12,107.85,388.12,107.85c19.61,11.32,35.51,41.7,35.51,67.85,0,0,9.61,473.73,9.61,459.84v-463C433.24,146.35,417.34,116,397.73,104.65Z"/><path class="cls-62" d="M385.83,668,212,567.64c-19.62-11.32-35.51-41.7-35.51-67.85v-463C176.45,10.6,192.34-1.42,212,9.9L385.83,110.29c19.61,11.32,35.51,41.7,35.51,67.85v463C421.34,667.33,405.44,679.35,385.83,668Z"/><path class="cls-63" d="M382.73,669.69,208.86,569.31c-19.61-11.32-35.51-41.7-35.51-67.85v-463c0-26.15,15.9-38.17,35.51-26.84L382.73,112c19.62,11.32,35.52,41.7,35.52,67.85v463C418.25,669,402.35,681,382.73,669.69Z"/><path class="cls-64" d="M178.19,504.54V40.93c0-22.92,13.94-33.46,31.13-23.53l173,99.85c17.19,9.93,31.13,36.56,31.13,59.48V640.34c0,22.92-13.94,33.46-31.13,23.53L209.32,564C192.13,554.09,178.19,527.46,178.19,504.54Z"/><path class="cls-65" d="M185.11,507.36V46.1c0-19.19,11.67-28,26.06-19.7l169.26,97.72c14.39,8.31,26.05,30.6,26.05,49.79V635.17c0,19.19-11.66,28-26.05,19.7L211.17,557.15C196.78,548.84,185.11,526.55,185.11,507.36Z"/><path class="cls-66" d="M213.13,31.5c-13.56-7.83-24.56-1.56-24.56,14V512c0,15.56,11,34.53,24.56,42.36l165.34,95.46c13.56,7.83,24.56,1.56,24.56-14V169.32c0-15.56-11-34.53-24.56-42.36Z"/><path class="cls-67" d="M422.91,287V255.69c0-4,2.43-8.64,5.43-10.37h0c3-1.73,5.43.11,5.43,4.1v31.26c0,4-2.43,8.64-5.43,10.37h0C425.34,292.78,422.91,291,422.91,287Z"/><path class="cls-68" d="M426.19,290.53c-1.55,0-2.1-1.93-2.1-3.58V255.69c0-3.56,2.21-7.84,4.84-9.35a3.18,3.18,0,0,1,1.57-.5c1.54,0,2.09,1.93,2.09,3.58v31.26c0,3.56-2.21,7.84-4.84,9.36A3.26,3.26,0,0,1,426.19,290.53Z"/><path class="cls-69" d="M425.69,287.75V256.49c0-3.56,2.22-7.84,4.84-9.35a3.32,3.32,0,0,1,1.39-.47,1.68,1.68,0,0,0-1.42-.83,3.18,3.18,0,0,0-1.57.5c-2.63,1.51-4.84,5.79-4.84,9.35V287c0,1.65.55,3.58,2.1,3.58l.17,0A5.27,5.27,0,0,1,425.69,287.75Z"/><g class="cls-70"><path class="cls-71" d="M213.53,116.55c-14.28-8.25-25.86-1.65-25.86,14.74V503.82c0,16.39,11.58,36.36,25.86,44.6L387.64,649c14.29,8.24,25.86,1.64,25.86-14.75V261.68c0-16.39-11.57-36.37-25.86-44.61Z"/><path class="cls-72" d="M213.56,117.76c-14.21-8.2-25.74-1.63-25.74,14.68V503.15c0,16.31,11.53,36.18,25.74,44.39l173.26,100c14.21,8.21,25.74,1.64,25.74-14.67V262.19c0-16.31-11.53-36.19-25.74-44.39Z"/><path class="cls-73" d="M213.59,119c-14.15-8.16-25.61-1.63-25.61,14.6v368.9c0,16.23,11.46,36,25.61,44.17L386,646.19c14.14,8.17,25.61,1.63,25.61-14.6V262.7c0-16.23-11.47-36-25.61-44.18Z"/><path class="cls-74" d="M213.61,120.2c-14.07-8.12-25.48-1.62-25.48,14.53V501.81c0,16.15,11.41,35.83,25.48,43.95l171.56,99c14.08,8.13,25.49,1.62,25.49-14.53V263.21c0-16.15-11.41-35.83-25.49-44Z"/><path class="cls-75" d="M213.64,121.42c-14-8.09-25.36-1.61-25.36,14.46V501.14c0,16.07,11.35,35.65,25.36,43.73l170.71,98.56c14,8.09,25.36,1.62,25.36-14.45V263.72c0-16.07-11.35-35.65-25.36-43.74Z"/><path class="cls-76" d="M213.66,122.64c-13.93-8-25.23-1.61-25.23,14.38V500.47c0,16,11.3,35.47,25.23,43.52l169.87,98.07c13.93,8,25.23,1.6,25.23-14.39V264.23c0-16-11.3-35.47-25.23-43.52Z"/><path class="cls-77" d="M213.69,123.86c-13.86-8-25.1-1.6-25.1,14.31V499.8c0,15.91,11.24,35.29,25.1,43.3l169,97.58c13.86,8,25.1,1.6,25.1-14.31V264.74c0-15.91-11.24-35.3-25.1-43.3Z"/><path class="cls-78" d="M213.72,125.08c-13.8-8-25-1.59-25,14.24V499.13c0,15.83,11.18,35.11,25,43.08L381.88,639.3c13.8,8,25,1.59,25-14.24V265.25c0-15.83-11.18-35.12-25-43.08Z"/><path class="cls-79" d="M213.74,126.29c-13.72-7.92-24.85-1.58-24.85,14.17v358c0,15.76,11.13,34.95,24.85,42.87l167.32,96.6c13.73,7.93,24.85,1.58,24.85-14.17v-358c0-15.75-11.12-34.94-24.85-42.86Z"/><path class="cls-80" d="M213.77,127.51c-13.65-7.88-24.73-1.57-24.73,14.1V497.78c0,15.67,11.08,34.77,24.73,42.65l166.47,96.11c13.65,7.89,24.73,1.58,24.73-14.09V266.27c0-15.67-11.08-34.76-24.73-42.65Z"/><path class="cls-81" d="M213.8,128.73c-13.59-7.84-24.6-1.56-24.6,14V497.11c0,15.59,11,34.59,24.6,42.44l165.62,95.62c13.58,7.84,24.6,1.56,24.6-14V266.78c0-15.59-11-34.58-24.6-42.43Z"/><path class="cls-82" d="M213.82,130c-13.51-7.8-24.47-1.56-24.47,14V496.44c0,15.51,11,34.41,24.47,42.22l164.77,95.13c13.52,7.8,24.48,1.55,24.48-14V267.29c0-15.51-11-34.41-24.48-42.21Z"/></g><path class="cls-83" d="M213.13,128.58c-13.56-7.83-24.56-1.56-24.56,14V496.34c0,15.57,11,34.53,24.56,42.36l165.34,95.46C392,642,403,635.72,403,620.16V266.4c0-15.56-11-34.53-24.56-42.36Z"/><path class="cls-84" d="M378.47,224,213.13,128.58c-13.56-7.83-24.56-1.56-24.56,14V145c0-15.56,11-21.83,24.56-14l165.34,95.46C392,234.25,403,253.21,403,268.78V266.4C403,250.84,392,231.87,378.47,224Z"/><path class="cls-85" d="M365.31,149.15l21.47,12.39c.82.47,1.48.1,1.48-.84a3.28,3.28,0,0,0-1.48-2.56l-21.47-12.39c-.82-.47-1.48-.1-1.48.84A3.28,3.28,0,0,0,365.31,149.15Zm21.47,16.64-21.47-12.4c-.82-.47-1.48-.09-1.48.85a3.24,3.24,0,0,0,1.48,2.55l21.47,12.4c.82.47,1.48.09,1.48-.85A3.26,3.26,0,0,0,386.78,165.79Zm0,7.65L365.31,161c-.82-.47-1.48-.09-1.48.84a3.26,3.26,0,0,0,1.48,2.56l21.47,12.39c.82.48,1.48.1,1.48-.84A3.24,3.24,0,0,0,386.78,173.44Z"/><path class="cls-85" d="M233.76,75c0,2.27-1.6,3.18-3.58,2a7.88,7.88,0,0,1-3.57-6.17c0-2.26,1.6-3.17,3.57-2A7.87,7.87,0,0,1,233.76,75Z"/><path class="cls-85" d="M223,68.73c0,2.26-1.6,3.17-3.57,2a7.89,7.89,0,0,1-3.58-6.16c0-2.27,1.61-3.18,3.58-2A7.88,7.88,0,0,1,223,68.73Z"/><path class="cls-85" d="M212.19,62.46c0,2.27-1.6,3.18-3.57,2A7.87,7.87,0,0,1,205,58.33c0-2.26,1.6-3.18,3.58-2A7.88,7.88,0,0,1,212.19,62.46Z"/><path class="cls-85" d="M296,104.78c-2.43-1.4-4.4-.28-4.4,2.51a9.69,9.69,0,0,0,4.4,7.59c2.43,1.41,4.4.28,4.4-2.51A9.69,9.69,0,0,0,296,104.78Zm-31.05,17.71c-2.43-1.41-4.4-.28-4.4,2.51a9.72,9.72,0,0,0,4.4,7.59c2.43,1.4,4.4.28,4.4-2.51A9.69,9.69,0,0,0,264.93,122.49ZM327,158.34c-2.43-1.4-4.4-.28-4.4,2.51a9.69,9.69,0,0,0,4.4,7.59c2.43,1.41,4.41.28,4.41-2.51A9.73,9.73,0,0,0,327,158.34Zm.43-3.41c4.38-.37,5.88-5.94,3.35-12.43s-8.14-11.46-12.52-11.08-5.89,5.94-3.36,12.43S323.07,155.31,327.46,154.93ZM315.32,128.3c1.21-1.72.49-5.22-1.61-7.83s-4.8-3.34-6-1.63-.5,5.22,1.61,7.83S314.1,130,315.32,128.3ZM278.25,100c-2.1.18-2.82,2.85-1.61,6s3.91,5.49,6,5.32,2.83-2.86,1.62-6S280.36,99.82,278.25,100Zm-13,7.4c-1.22,1.71-.5,5.21,1.61,7.82s4.79,3.34,6,1.63.49-5.22-1.61-7.83S266.49,105.68,265.28,107.4Z"/><ellipse class="cls-86" cx="367.7" cy="309.71" rx="14.14" ry="24.5" transform="translate(-106.04 227.91) rotate(-30.31)"/><path class="cls-87" d="M249.84,204.37c-1.5-3.84-4.9-6.63-7.33-6-20.71,5.18-35,23.74-37.74,52.84-.31,3.25,2,7.58,5,9.32l11.35,6.55c2.53,1.46,4.69.57,5-2.14,2.33-21.31,12.81-35.06,28-39.26,2.07-.58,2.7-3.45,1.41-6.76Zm86.26,38.57c-12.06-13.65-25.59-25.22-39.88-33.48s-27.82-12.29-39.88-12.57c-2.66-.07-3.69,3.06-2.21,6.84l5.66,14.52c1.29,3.33,4.1,6,6.44,6.09,9.1.34,19.26,3.44,30,9.63a124.94,124.94,0,0,1,30,25c2.35,2.62,5.15,3.18,6.45,1.36l5.66-8C339.78,250.25,338.75,245.94,336.1,242.94Zm13.82,17.43c-2.42-3.41-5.83-4.56-7.33-2.45l-5.66,8c-1.29,1.82-.66,5.42,1.41,8.38,15.17,21.73,25.65,47.57,28,71.57a11.12,11.12,0,0,0,5,7.9l11.36,6.56c3,1.73,5.31.07,5-3.54C384.89,324.48,370.64,289.47,349.92,260.37Z"/><path class="cls-88" d="M240.14,200.05c-20.72,5.18-35,23.73-37.74,52.84-.31,3.25,2,7.58,5,9.31l11.36,6.56c2.52,1.45,4.69.57,5-2.14,2.33-21.31,12.81-35.06,28-39.27,2.07-.57,2.7-3.44,1.41-6.75l-5.67-14.54C246,202.23,242.56,199.44,240.14,200.05Z"/><path class="cls-89" d="M335.93,254c1.48-2.08.45-6.4-2.21-9.4-12.06-13.65-25.58-25.22-39.88-33.47S266,198.86,254,198.58c-2.65-.06-3.68,3.07-2.21,6.84L257.41,220c1.3,3.32,4.1,6,6.45,6.08,9.1.34,19.26,3.45,30,9.64a124.56,124.56,0,0,1,30,25c2.34,2.62,5.15,3.18,6.44,1.35Z"/><path class="cls-90" d="M340.22,259.62l-5.67,8c-1.29,1.82-.66,5.42,1.41,8.38,15.17,21.73,25.65,47.57,28,71.57a11.15,11.15,0,0,0,5,7.9L380.28,362c3,1.74,5.32.08,5-3.53-2.77-32.31-17-67.32-37.74-96.42C345.12,258.65,341.72,257.51,340.22,259.62Z"/><g class="cls-25"><path class="cls-91" d="M247.46,206.06c-1.49-3.83-4.9-6.62-7.32-6A44.64,44.64,0,0,0,214.23,218a44.5,44.5,0,0,1,24.89-16.56c2.42-.6,5.83,2.18,7.33,6L252.12,222a7.11,7.11,0,0,1,.34,5c1.46-1,1.79-3.53.67-6.4Z"/><path class="cls-91" d="M347.55,262.06c-2.43-3.41-5.83-4.55-7.33-2.44l-.83,1.17c1.57-1.81,4.8-.66,7.14,2.63,20.72,29.1,35,64.11,37.74,96.42a5.39,5.39,0,0,1-.29,2.43c.94-.64,1.46-2,1.31-3.79C382.52,326.17,368.26,291.16,347.55,262.06Z"/><path class="cls-91" d="M222.73,268a3.91,3.91,0,0,1-.25,1,3.13,3.13,0,0,0,1.26-2.38c1.15-10.44,4.25-19.05,8.89-25.63C227.43,247.72,224,256.8,222.73,268Z"/><path class="cls-91" d="M333.72,244.63c-12.06-13.65-25.58-25.22-39.88-33.47S266,198.86,254,198.58a2.58,2.58,0,0,0-2.57,1.81,2.63,2.63,0,0,1,1.55-.45c12.07.28,25.59,4.32,39.88,12.58s27.82,19.82,39.89,33.47c2.65,3,3.68,7.32,2.21,9.39l-4.86,6.85a2.18,2.18,0,0,0,.21-.22l5.67-8C337.41,252,336.38,247.63,333.72,244.63Z"/></g><path class="cls-85" d="M382,321.27c0,11-7.78,15.45-17.38,9.91s-17.38-19-17.38-30,7.78-15.45,17.38-9.91S382,310.26,382,321.27Z"/><path class="cls-92" d="M378.77,319.39c0,8.95-6.32,12.55-14.12,8.05S350.53,312,350.53,303.09s6.32-12.56,14.12-8S378.77,310.44,378.77,319.39Z"/><path class="cls-93" d="M366.35,326.93c-7.8-4.5-14.12-15.4-14.12-24.35,0-4.82,1.84-8.08,4.76-9.36-3.89.64-6.46,4.16-6.46,9.87,0,8.94,6.32,19.85,14.12,24.35,3.59,2.08,6.87,2.41,9.36,1.31A11.68,11.68,0,0,1,366.35,326.93Z"/><path class="cls-85" d="M372.79,315.94c0,5.16-3.64,7.24-8.14,4.65s-8.15-8.89-8.15-14,3.65-7.25,8.15-4.65S372.79,310.78,372.79,315.94Z"/><polygon class="cls-94" points="327.24 308.58 348.96 315.58 344.13 337.72 327.24 308.58"/><polygon class="cls-95" points="325.37 309.26 347.09 316.26 342.26 338.4 325.37 309.26"/><polygon class="cls-96" points="325.37 309.26 326.53 311.27 346.24 317.62 341.86 337.71 342.26 338.4 347.09 316.26 325.37 309.26"/><path class="cls-85" d="M268.23,292.76l-12.19-7v-6.3l18.12,10.46v6.05l-9.44,32.6L258.57,325Z"/><path class="cls-85" d="M280.2,335.23a19.48,19.48,0,0,1-2.31-9.55v-.82l5.71,3.3v1.26c0,2.9,1,4.95,3.13,6.15,1.14.66,2,.74,2.53.26s.82-1.73.82-3.74v-8.44l-.11-.07q-1.59,2.93-5.49.68a12.22,12.22,0,0,1-5-5.47,19.47,19.47,0,0,1-1.71-8.48v-7.88c0-3.52.79-5.8,2.37-6.82s3.84-.68,6.8,1a17.66,17.66,0,0,1,6.81,6.83,19.4,19.4,0,0,1,2.36,9.55v22.81q0,11.46-9.22,6.14A17.35,17.35,0,0,1,280.2,335.23Zm9.88-18.39V309q0-4.29-3.13-6.09c-2.08-1.21-3.13-.38-3.13,2.48v7.81c0,2.9,1.05,4.95,3.13,6.15S290.08,319.74,290.08,316.84Z"/><path class="cls-85" d="M302.27,347.94a19.4,19.4,0,0,1-2.36-9.55V315.21q0-5.29,2.36-6.83t6.81,1a17.8,17.8,0,0,1,6.81,6.83,19.43,19.43,0,0,1,2.36,9.55V349q0,5.29-2.36,6.82c-1.58,1-3.85.68-6.81-1A17.66,17.66,0,0,1,302.27,347.94Zm9.94-2V321.87c0-2.9-1-4.95-3.13-6.16s-3.13-.36-3.13,2.54v24.07q0,4.35,3.13,6.15C311.16,349.68,312.21,348.83,312.21,345.93Z"/><g class="cls-70"><path class="cls-97" d="M213.53,282.81c-14.28-8.25-25.86-1.65-25.86,14.74V507.41c0,16.39,11.58,36.36,25.86,44.6L387.64,652.54c14.29,8.24,14.6-4.65,14.6-21V421.64c0-16.38-.31-30.06-14.6-38.31Z"/><path class="cls-98" d="M213.56,285c-14.21-8.21-25.74-1.64-25.74,14.67v208c0,16.31,11.53,36.18,25.74,44.39l173.26,100c14.21,8.21,15.5-4.08,15.5-20.39v-208c0-16.31-1.29-30.46-15.5-38.67Z"/><path class="cls-99" d="M213.59,287.23c-14.15-8.17-25.61-1.63-25.61,14.6V508.05c0,16.23,11.46,36,25.61,44.17L386,651.77c14.14,8.16,16.39-3.52,16.39-19.75V425.8c0-16.23-2.25-30.86-16.39-39Z"/><path class="cls-100" d="M213.61,289.44c-14.07-8.12-25.48-1.62-25.48,14.53v204.4c0,16.15,11.41,35.83,25.48,44l171.56,99c14.08,8.13,17.3-3,17.3-19.11V427.87c0-16.15-3.22-31.25-17.3-39.38Z"/><path class="cls-101" d="M213.64,291.65c-14-8.08-25.36-1.61-25.36,14.46V508.7c0,16.07,11.35,35.65,25.36,43.73L384.35,651c14,8.09,18.19-2.39,18.19-18.46V430c0-16.07-4.18-31.65-18.19-39.74Z"/><path class="cls-102" d="M213.66,293.86c-13.93-8-25.23-1.6-25.23,14.39V509c0,16,11.3,35.47,25.23,43.52l169.87,98.07c13.93,8,19.09-1.83,19.09-17.82V432c0-16-5.16-32-19.09-40.09Z"/><path class="cls-103" d="M213.69,296.07c-13.86-8-25.1-1.59-25.1,14.32v199c0,15.91,11.24,35.3,25.1,43.3l169,97.58c13.86,8,20-1.26,20-17.17V434.1c0-15.91-6.12-32.44-20-40.44Z"/><path class="cls-104" d="M213.72,298.29c-13.8-8-25-1.59-25,14.24V509.66c0,15.83,11.18,35.12,25,43.09l168.16,97.09c13.8,8,20.89-.7,20.89-16.53V436.17c0-15.83-7.09-32.83-20.89-40.79Z"/><path class="cls-105" d="M213.74,300.5c-13.72-7.93-24.85-1.58-24.85,14.17V510c0,15.75,11.13,34.95,24.85,42.87l167.32,96.6c13.73,7.93,21.78-.13,21.78-15.88V438.25c0-15.75-8-33.23-21.78-41.15Z"/><path class="cls-106" d="M213.77,302.71c-13.65-7.89-24.73-1.57-24.73,14.1v193.5c0,15.67,11.08,34.76,24.73,42.65l166.47,96.11c13.65,7.88,22.68.42,22.68-15.25V440.32c0-15.67-9-33.62-22.68-41.5Z"/><path class="cls-107" d="M213.8,304.92c-13.59-7.84-24.6-1.56-24.6,14V510.63c0,15.59,11,34.59,24.6,42.43l165.62,95.62c13.58,7.84,23.57,1,23.57-14.6V442.4c0-15.59-10-34-23.57-41.86Z"/><path class="cls-108" d="M213.82,307.13c-13.51-7.8-24.47-1.56-24.47,13.95V511c0,15.51,11,34.41,24.47,42.22L378.59,648.3c13.52,7.8,24.48,1.55,24.48-14V444.47c0-15.51-11-34.41-24.48-42.21Z"/></g><path class="cls-109" d="M213.13,309.45c-13.56-7.83-24.56-1.56-24.56,14V512c0,15.56,11,34.53,24.56,42.36l165.34,95.46c13.56,7.83,24.56,1.56,24.56-14V447.27c0-15.56-11-34.53-24.56-42.36Z"/><path class="cls-110" d="M378.47,404.91,213.13,309.45c-13.56-7.83-24.56-1.56-24.56,14v2.38c0-15.56,11-21.83,24.56-14l165.34,95.46C392,415.12,403,434.08,403,449.65v-2.38C403,431.71,392,412.74,378.47,404.91Z"/><path class="cls-111" d="M191.85,437.27S205.93,370.66,242.9,392s31.69,42.53,65.13,61.85c37,21.34,24.65-42.34,93.31-2.7V584l-211-113.55Z"/><g class="cls-112"><path class="cls-113" d="M354.1,434.76a1.08,1.08,0,0,1-.55-.15L194,342.31a1.08,1.08,0,0,1-.4-1.49,1.1,1.1,0,0,1,1.49-.4l159.57,92.3a1.1,1.1,0,0,1-.55,2Z"/></g><path class="cls-114" d="M321.86,459.89c-4,0-8.74-1.34-14.59-4.72-16.59-9.58-24-19.87-31.16-29.81-7.53-10.46-15.31-21.26-34-32-7.64-4.41-14.81-5.18-21.3-2.28-19.27,8.6-27.42,46.16-27.5,46.54a1.53,1.53,0,1,1-3-.63c.34-1.6,8.57-39.48,29.25-48.7,7.44-3.31,15.53-2.5,24.06,2.43,19.23,11.1,27.21,22.18,34.93,32.89,7.29,10.13,14.19,19.7,30.21,28.95,14.67,8.47,20.79,2.92,28.53-4.11,10.78-9.8,24.2-22,64.77,1.42a1.53,1.53,0,1,1-1.53,2.64c-38.63-22.3-50.61-11.41-61.18-1.8C334.22,455.36,329.24,459.89,321.86,459.89Z"/><g class="cls-115"><polygon class="cls-116" points="361.18 559.24 367.58 563.91 367.58 441.61 363.74 439.05 361.18 439.36 361.18 559.24"/></g><g class="cls-25"><path class="cls-117" d="M367.54,575.3l-5.48,0-.24-50.85-.29-81.07c0-2.2,1.23-4,2.74-4h0c1.52,0,2.74,1.8,2.75,4l.29,81.07Z"/><path class="cls-118" d="M365.5,549.32l.18-38.94V509l.18-63.3a7.42,7.42,0,0,0-.45-2.61,1.26,1.26,0,0,0-1.07-.88h0a1.29,1.29,0,0,0-1.12.92,6.89,6.89,0,0,0-.43,2.43l.17,63.49v1.59l.17,36.15Z"/><path class="cls-119" d="M364,543.59l.49-35.75.49-61.49c0-.6-.33-1.09-.74-1.09h0c-.42,0-.76.49-.76,1.09l.26,61.49Z"/></g><g class="cls-120"><polygon class="cls-121" points="366.79 402.5 361.32 400.9 361.91 440.69 365.19 441.57 367.37 441.5 366.79 402.5"/></g><g class="cls-25"><path class="cls-122" d="M362.05,404.75h4.21l.1,13.64.1,21.73c0,.59-.94,1.07-2.11,1.07h0c-1.16,0-2.1-.48-2.1-1.07l-.1-21.74Z"/><path class="cls-123" d="M363.36,406.55l-.16,12.25v.43L363,439.14c0,.17.15.72.41.82a1.52,1.52,0,0,0,1,.28h0a1.6,1.6,0,0,0,1-.29c.24-.1.38-.6.38-.77l-.15-20v-.5l-.15-11.37Z"/><path class="cls-124" d="M364.67,408.35l-.44,11.25L363.79,439c0,.18.3.34.67.34h0c.37,0,.67-.16.67-.34l-.23-19.35Z"/></g><path class="cls-125" d="M357.49,434.8a13.37,13.37,0,0,0,6.07,10.46c3.36,1.94,6.07.39,6.07-3.46a13.34,13.34,0,0,0-6.07-10.46C360.21,429.4,357.49,431,357.49,434.8Z"/><path class="cls-42" d="M366.29,447.19h0a6.54,6.54,0,0,1-3.27-1,14.38,14.38,0,0,1-6.62-11.41c0-3.23,1.79-5.39,4.44-5.39a6.6,6.6,0,0,1,3.27,1,14.39,14.39,0,0,1,6.62,11.41,6.14,6.14,0,0,1-1.17,3.86A4.14,4.14,0,0,1,366.29,447.19Zm-5.45-15.6c-2.09,0-2.25,2.46-2.25,3.21a12.38,12.38,0,0,0,5.52,9.52,4.51,4.51,0,0,0,2.18.69h0a1.92,1.92,0,0,0,1.56-.72,4,4,0,0,0,.69-2.49,12.38,12.38,0,0,0-5.52-9.52A4.51,4.51,0,0,0,360.84,431.59Z"/><path class="cls-126" d="M294.91,572.07c0,3.41-2.4,4.78-5.37,3.07a11.84,11.84,0,0,1-5.37-9.27c0-3.4,2.4-4.77,5.37-3.06A11.82,11.82,0,0,1,294.91,572.07Z"/><path class="cls-127" d="M309.83,580.31c0,3.4-2.41,4.78-5.37,3.06a11.82,11.82,0,0,1-5.37-9.26c0-3.41,2.4-4.78,5.37-3.06A11.85,11.85,0,0,1,309.83,580.31Z"/><path class="cls-128" d="M289.54,562.81,266.33,550.1v12l23.21,13c3,1.71,5.37.34,5.37-3.07A11.82,11.82,0,0,0,289.54,562.81Z"/><path class="cls-129" d="M270.79,527.67l58.79,33.94V529.2l-58.79-34ZM210.85,469.4v14.9a16.83,16.83,0,0,0,7.63,13.17L266.21,525V492.6l-47.73-27.55C214.27,462.62,210.85,464.57,210.85,469.4Zm234.28,143L398.38,531.8v37l-64.25-37.1V565l64.25,37.1v37Z"/><path class="cls-130" d="M269.18,529.74l58.79,34V531.27l-58.79-33.95Zm-59.94-58.26v14.89a16.8,16.8,0,0,0,7.63,13.17l47.72,27.56V494.68l-47.72-27.56C212.65,464.69,209.24,466.64,209.24,471.48Zm234.28,143-46.75-80.63v37l-64.26-37.1v33.28l64.26,37.1v37Z"/><polygon class="cls-131" points="442.08 615.32 443.52 614.5 396.77 533.87 396.77 537.17 442.08 615.32"/><g class="cls-25"><path class="cls-91" d="M210.3,467.7a5.61,5.61,0,0,1,5,.71L263,496v30.2l1.61.93V494.68l-47.72-27.56C214.06,465.5,211.62,465.86,210.3,467.7Z"/><polygon class="cls-91" points="397.37 571.08 332.55 533.91 332.55 536.13 395.76 572.37 397.37 571.08"/><polygon class="cls-91" points="269.18 499.54 326.36 532.56 326.36 562.76 327.97 563.69 327.97 531.27 269.18 497.32 269.18 499.54"/></g><polygon class="cls-132" points="148.45 97.45 148.45 72.43 161.96 92.74 148.45 97.45 148.45 97.45"/><polygon class="cls-133" points="130.06 86.93 130.06 61.9 143.57 82.22 130.06 86.93 130.06 86.93"/><polygon class="cls-134" points="111.66 76.41 111.66 51.38 125.17 71.69 111.66 76.41 111.66 76.41"/><polygon class="cls-135" points="93.26 65.88 93.26 40.85 106.77 61.17 93.26 65.88 93.26 65.88"/><polygon class="cls-136" points="74.86 55.36 74.86 30.33 88.37 50.65 74.86 55.36 74.86 55.36"/><polygon class="cls-132" points="448.28 277.71 448.28 252.69 461.79 273 448.28 277.71 448.28 277.71"/><polygon class="cls-133" points="429.88 267.19 429.88 242.16 443.39 262.48 429.88 267.19 429.88 267.19"/><polygon class="cls-134" points="411.49 256.67 411.49 231.64 425 251.95 411.49 256.67 411.49 256.67"/><polygon class="cls-135" points="393.09 246.14 393.09 221.12 406.6 241.43 393.09 246.14 393.09 246.14"/><polygon class="cls-136" points="374.69 235.62 374.69 210.59 388.2 230.91 374.69 235.62 374.69 235.62"/><polygon class="cls-132" points="482.3 531.3 482.3 506.27 495.81 526.58 482.3 531.3 482.3 531.3"/><polygon class="cls-133" points="463.9 520.77 463.9 495.75 477.41 516.06 463.9 520.77 463.9 520.77"/><polygon class="cls-134" points="445.5 510.25 445.5 485.22 459.01 505.54 445.5 510.25 445.5 510.25"/><polygon class="cls-135" points="427.1 499.73 427.1 474.7 440.61 495.01 427.1 499.73 427.1 499.73"/><polygon class="cls-136" points="408.7 489.2 408.7 464.17 422.21 484.49 408.7 489.2 408.7 489.2"/><polygon class="cls-132" points="516.8 425.81 516.8 400.78 530.32 421.09 516.8 425.81 516.8 425.81"/><polygon class="cls-133" points="498.41 415.28 498.41 390.25 511.92 410.57 498.41 415.28 498.41 415.28"/><polygon class="cls-134" points="480.01 404.76 480.01 379.73 493.52 400.05 480.01 404.76 480.01 404.76"/><polygon class="cls-135" points="461.61 394.23 461.61 369.21 475.12 389.52 461.61 394.23 461.61 394.23"/><polygon class="cls-136" points="443.21 383.71 443.21 358.68 456.72 379 443.21 383.71 443.21 383.71"/><polygon class="cls-132" points="186.35 349.7 186.35 324.67 199.87 344.99 186.35 349.7 186.35 349.7"/><polygon class="cls-133" points="167.96 339.18 167.96 314.15 181.47 334.46 167.96 339.18 167.96 339.18"/><polygon class="cls-134" points="149.56 328.65 149.56 303.62 163.07 323.94 149.56 328.65 149.56 328.65"/><polygon class="cls-135" points="131.16 318.13 131.16 293.1 144.67 313.41 131.16 318.13 131.16 318.13"/><polygon class="cls-136" points="112.76 307.6 112.76 282.57 126.27 302.89 112.76 307.6 112.76 307.6"/><polygon class="cls-132" points="228.36 550.16 228.36 525.13 241.87 545.45 228.36 550.16 228.36 550.16"/><polygon class="cls-133" points="209.96 539.64 209.96 514.61 223.47 534.92 209.96 539.64 209.96 539.64"/><polygon class="cls-134" points="191.56 529.11 191.56 504.08 205.07 524.4 191.56 529.11 191.56 529.11"/><polygon class="cls-135" points="173.16 518.59 173.16 493.56 186.68 513.87 173.16 518.59 173.16 518.59"/><polygon class="cls-136" points="154.77 508.06 154.77 483.04 168.28 503.35 154.77 508.06 154.77 508.06"/><circle class="cls-137" cx="357.28" cy="434.61" r="32.29" transform="translate(-165.62 642.24) rotate(-72.23)"/><path class="cls-138" d="M346,443.09a24.45,24.45,0,1,0-33.11-10A24.44,24.44,0,0,0,346,443.09Z"/><circle class="cls-139" cx="316.17" cy="410.77" r="18.34" transform="translate(-143.78 649.82) rotate(-79.88)"/><circle class="cls-140" cx="207.98" cy="60.08" r="32.29" transform="translate(91.7 242.68) rotate(-73.62)"/><circle class="cls-141" cx="185.11" cy="47.01" r="24.45" transform="translate(-3.28 78.36) rotate(-23.7)"/><path class="cls-142" d="M175.54,52.4a18.34,18.34,0,1,0-24.83-7.49A18.36,18.36,0,0,0,175.54,52.4Z"/><path class="cls-132" d="M509.13,538.76v-9.22a23.83,23.83,0,0,1-5.51-6.91,15.63,15.63,0,0,1-1.76-7.07c0-2.4.67-4,2-4.91s3.08-.8,5.28.22v-2.18l2.78,1.61v2.18a17.28,17.28,0,0,1,4.85,5.18,17.55,17.55,0,0,1,2.3,6.6l-4.85-2.08a9,9,0,0,0-2.3-4.84v8.6a27.4,27.4,0,0,1,6.26,7.32,14.58,14.58,0,0,1,1.67,6.8q0,4-2.1,5.5t-5.83,0v4.11l-2.78-1.6v-4a19,19,0,0,1-5.39-5.95,21.39,21.39,0,0,1-2.64-8.23l5,2.27a13.36,13.36,0,0,0,1.15,3.7A12.64,12.64,0,0,0,509.13,538.76Zm0-23.09a1.88,1.88,0,0,0-1.8.45,2.63,2.63,0,0,0-.67,1.94,6.18,6.18,0,0,0,.61,2.53,10.35,10.35,0,0,0,1.86,2.69Zm2.78,25a2.31,2.31,0,0,0,2.34-.18,2.79,2.79,0,0,0,.9-2.35,6.62,6.62,0,0,0-.76-3,11,11,0,0,0-2.48-3.08Z"/><path class="cls-132" d="M560.46,419.08,559.23,425a13.82,13.82,0,0,0-5.16-5c-2.26-1.31-4.1-1.43-5.5-.38a5,5,0,0,0-1.68,3l11.45,6.61-.67,3.32L546.47,426c0,.36,0,.83,0,1.4s0,1.15,0,1.77l10.6,6.12-.67,3.31-9.49-5.48a17.27,17.27,0,0,0,1.6,4.94,14.12,14.12,0,0,0,5.41,6c2.67,1.54,4.79,1.82,6.37.86v7.31a13.26,13.26,0,0,1-6.3-2.09,26.86,26.86,0,0,1-10-10.55,30.54,30.54,0,0,1-3.51-10.13l-3.09-1.78.67-3.32,2,1.18c0-.39,0-.8,0-1.23,0-.73,0-1.37,0-1.91l-2.73-1.58.67-3.31,2.48,1.43q.87-4.26,3.47-5.95,3.94-2.55,10.35,1.15A23.86,23.86,0,0,1,560.46,419.08Z"/><circle class="cls-143" cx="324.93" cy="141.82" r="43.97" transform="translate(-12.97 249.14) rotate(-41.2)"/><text class="cls-144" transform="translate(468.77 285.16) rotate(7.59)">KSH</text></g></g></svg>